<svg xmlns="http://www.w3.org/2000/svg" xmlns:xlink="http://www.w3.org/1999/xlink" width="181" zoomAndPan="magnify" viewBox="0 0 135.75 30.000001" height="40" preserveAspectRatio="xMidYMid meet" version="1.0"><defs><g/><clipPath id="9c6bdcdf05"><path d="M 10 5 L 23 5 L 23 16 L 10 16 Z M 10 5 " clip-rule="nonzero"/></clipPath><clipPath id="85682c8837"><path d="M 16.199219 5.367188 C 21.339844 9.175781 22.175781 15.851562 22.175781 15.851562 C 21.007812 14.871094 19.054688 14.265625 19.054688 14.265625 C 17.691406 11.296875 16.199219 10.605469 16.199219 10.605469 C 14.730469 11.476562 13.222656 14.300781 13.222656 14.300781 C 12.074219 14.609375 10.242188 15.847656 10.242188 15.847656 C 10.769531 9.867188 16.105469 5.429688 16.105469 5.429688 Z M 16.199219 5.367188 " clip-rule="nonzero"/></clipPath><linearGradient x1="904.099945" gradientTransform="matrix(0.0593472, 0, 0, 0.0591398, -43.413742, -17.615328)" y1="477.23599" x2="1105.199907" gradientUnits="userSpaceOnUse" y2="477.23599" id="ee57818c08"><stop stop-opacity="1" stop-color="rgb(94.898987%, 40.79895%, 21.998596%)" offset="0"/><stop stop-opacity="1" stop-color="rgb(94.88678%, 40.658569%, 22.142029%)" offset="0.015625"/><stop stop-opacity="1" stop-color="rgb(94.862366%, 40.37323%, 22.433472%)" offset="0.03125"/><stop stop-opacity="1" stop-color="rgb(94.836426%, 40.086365%, 22.72644%)" offset="0.046875"/><stop stop-opacity="1" stop-color="rgb(94.812012%, 39.797974%, 23.020935%)" offset="0.0625"/><stop stop-opacity="1" stop-color="rgb(94.787598%, 39.511108%, 23.31543%)" offset="0.078125"/><stop stop-opacity="1" stop-color="rgb(94.761658%, 39.222717%, 23.608398%)" offset="0.09375"/><stop stop-opacity="1" stop-color="rgb(94.737244%, 38.935852%, 23.902893%)" offset="0.109375"/><stop stop-opacity="1" stop-color="rgb(94.711304%, 38.647461%, 24.195862%)" offset="0.125"/><stop stop-opacity="1" stop-color="rgb(94.68689%, 38.360596%, 24.490356%)" offset="0.140625"/><stop stop-opacity="1" stop-color="rgb(94.662476%, 38.07373%, 24.783325%)" offset="0.15625"/><stop stop-opacity="1" stop-color="rgb(94.636536%, 37.785339%, 25.07782%)" offset="0.171875"/><stop stop-opacity="1" stop-color="rgb(94.612122%, 37.498474%, 25.372314%)" offset="0.1875"/><stop stop-opacity="1" stop-color="rgb(94.586182%, 37.210083%, 25.665283%)" offset="0.203125"/><stop stop-opacity="1" stop-color="rgb(94.561768%, 36.923218%, 25.959778%)" offset="0.21875"/><stop stop-opacity="1" stop-color="rgb(94.537354%, 36.634827%, 26.252747%)" offset="0.234375"/><stop stop-opacity="1" stop-color="rgb(94.511414%, 36.347961%, 26.547241%)" offset="0.25"/><stop stop-opacity="1" stop-color="rgb(94.487%, 36.05957%, 26.84021%)" offset="0.265625"/><stop stop-opacity="1" stop-color="rgb(94.462585%, 35.772705%, 27.134705%)" offset="0.28125"/><stop stop-opacity="1" stop-color="rgb(94.436646%, 35.484314%, 27.427673%)" offset="0.296875"/><stop stop-opacity="1" stop-color="rgb(94.412231%, 35.197449%, 27.722168%)" offset="0.3125"/><stop stop-opacity="1" stop-color="rgb(94.386292%, 34.909058%, 28.016663%)" offset="0.328125"/><stop stop-opacity="1" stop-color="rgb(94.361877%, 34.622192%, 28.309631%)" offset="0.34375"/><stop stop-opacity="1" stop-color="rgb(94.337463%, 34.335327%, 28.604126%)" offset="0.359375"/><stop stop-opacity="1" stop-color="rgb(94.311523%, 34.046936%, 28.897095%)" offset="0.375"/><stop stop-opacity="1" stop-color="rgb(94.287109%, 33.760071%, 29.191589%)" offset="0.390625"/><stop stop-opacity="1" stop-color="rgb(94.261169%, 33.47168%, 29.484558%)" offset="0.40625"/><stop stop-opacity="1" stop-color="rgb(94.236755%, 33.184814%, 29.779053%)" offset="0.421875"/><stop stop-opacity="1" stop-color="rgb(94.212341%, 32.896423%, 30.072021%)" offset="0.4375"/><stop stop-opacity="1" stop-color="rgb(94.186401%, 32.609558%, 30.366516%)" offset="0.453125"/><stop stop-opacity="1" stop-color="rgb(94.161987%, 32.321167%, 30.661011%)" offset="0.46875"/><stop stop-opacity="1" stop-color="rgb(94.136047%, 32.034302%, 30.953979%)" offset="0.484375"/><stop stop-opacity="1" stop-color="rgb(94.111633%, 31.745911%, 31.248474%)" offset="0.5"/><stop stop-opacity="1" stop-color="rgb(94.087219%, 31.459045%, 31.541443%)" offset="0.515625"/><stop stop-opacity="1" stop-color="rgb(94.061279%, 31.170654%, 31.835938%)" offset="0.53125"/><stop stop-opacity="1" stop-color="rgb(94.036865%, 30.883789%, 32.128906%)" offset="0.546875"/><stop stop-opacity="1" stop-color="rgb(94.012451%, 30.596924%, 32.423401%)" offset="0.5625"/><stop stop-opacity="1" stop-color="rgb(93.986511%, 30.308533%, 32.71637%)" offset="0.578125"/><stop stop-opacity="1" stop-color="rgb(93.962097%, 30.021667%, 33.010864%)" offset="0.59375"/><stop stop-opacity="1" stop-color="rgb(93.936157%, 29.733276%, 33.305359%)" offset="0.609375"/><stop stop-opacity="1" stop-color="rgb(93.911743%, 29.446411%, 33.598328%)" offset="0.625"/><stop stop-opacity="1" stop-color="rgb(93.887329%, 29.15802%, 33.892822%)" offset="0.640625"/><stop stop-opacity="1" stop-color="rgb(93.861389%, 28.871155%, 34.185791%)" offset="0.65625"/><stop stop-opacity="1" stop-color="rgb(93.836975%, 28.582764%, 34.480286%)" offset="0.671875"/><stop stop-opacity="1" stop-color="rgb(93.811035%, 28.295898%, 34.773254%)" offset="0.6875"/><stop stop-opacity="1" stop-color="rgb(93.786621%, 28.007507%, 35.067749%)" offset="0.703125"/><stop stop-opacity="1" stop-color="rgb(93.762207%, 27.720642%, 35.360718%)" offset="0.71875"/><stop stop-opacity="1" stop-color="rgb(93.736267%, 27.432251%, 35.655212%)" offset="0.734375"/><stop stop-opacity="1" stop-color="rgb(93.711853%, 27.145386%, 35.949707%)" offset="0.75"/><stop stop-opacity="1" stop-color="rgb(93.687439%, 26.858521%, 36.242676%)" offset="0.765625"/><stop stop-opacity="1" stop-color="rgb(93.661499%, 26.570129%, 36.53717%)" offset="0.78125"/><stop stop-opacity="1" stop-color="rgb(93.637085%, 26.283264%, 36.830139%)" offset="0.796875"/><stop stop-opacity="1" stop-color="rgb(93.611145%, 25.994873%, 37.124634%)" offset="0.8125"/><stop stop-opacity="1" stop-color="rgb(93.586731%, 25.708008%, 37.417603%)" offset="0.828125"/><stop stop-opacity="1" stop-color="rgb(93.562317%, 25.419617%, 37.712097%)" offset="0.84375"/><stop stop-opacity="1" stop-color="rgb(93.536377%, 25.132751%, 38.005066%)" offset="0.859375"/><stop stop-opacity="1" stop-color="rgb(93.511963%, 24.84436%, 38.299561%)" offset="0.875"/><stop stop-opacity="1" stop-color="rgb(93.486023%, 24.557495%, 38.594055%)" offset="0.890625"/><stop stop-opacity="1" stop-color="rgb(93.461609%, 24.269104%, 38.887024%)" offset="0.90625"/><stop stop-opacity="1" stop-color="rgb(93.437195%, 23.982239%, 39.181519%)" offset="0.921875"/><stop stop-opacity="1" stop-color="rgb(93.411255%, 23.693848%, 39.474487%)" offset="0.9375"/><stop stop-opacity="1" stop-color="rgb(93.386841%, 23.406982%, 39.768982%)" offset="0.953125"/><stop stop-opacity="1" stop-color="rgb(93.360901%, 23.120117%, 40.061951%)" offset="0.96875"/><stop stop-opacity="1" stop-color="rgb(93.336487%, 22.831726%, 40.356445%)" offset="0.984375"/><stop stop-opacity="1" stop-color="rgb(93.312073%, 22.544861%, 40.65094%)" offset="1"/></linearGradient><clipPath id="f7439af545"><path d="M 6 14 L 26 14 L 26 24 L 6 24 Z M 6 14 " clip-rule="nonzero"/></clipPath><clipPath id="f0e905513a"><path d="M 6.617188 20.992188 C 7.078125 20.164062 7.816406 19.035156 8.9375 17.875 C 9.488281 17.300781 10.261719 16.515625 11.398438 15.816406 C 12.082031 15.402344 13.910156 14.289062 16.390625 14.324219 C 19.691406 14.375 21.976562 16.429688 22.871094 17.230469 C 23.804688 18.070312 24.617188 19.140625 24.617188 19.140625 C 25.148438 19.839844 25.535156 20.484375 25.808594 20.992188 C 25.742188 21.128906 25.683594 21.261719 25.617188 21.40625 C 25.617188 21.40625 24.230469 19.460938 22.421875 18.269531 C 22.421875 18.269531 22.609375 21.003906 21.976562 23.226562 C 21.976562 23.226562 21.351562 20.40625 20.046875 18.464844 C 20.046875 18.464844 19.925781 16.953125 19.921875 16.910156 C 19.914062 16.867188 16.519531 15.273438 12.457031 16.875 C 12.457031 16.875 12.285156 17.476562 12.347656 18.3125 C 12.347656 18.3125 10.972656 20.808594 10.472656 23.234375 C 10.472656 23.234375 9.84375 21.0625 9.976562 18.277344 C 9.976562 18.277344 7.292969 20.441406 6.828125 21.441406 Z M 6.617188 20.992188 " clip-rule="nonzero"/></clipPath><linearGradient x1="842.999967" gradientTransform="matrix(0.0593472, 0, 0, 0.0591398, -43.413742, -17.615328)" y1="615.36401" x2="1166.399854" gradientUnits="userSpaceOnUse" y2="615.36401" id="2d5f1c5446"><stop stop-opacity="1" stop-color="rgb(94.898987%, 40.79895%, 21.998596%)" offset="0"/><stop stop-opacity="1" stop-color="rgb(94.88678%, 40.655518%, 22.145081%)" offset="0.015625"/><stop stop-opacity="1" stop-color="rgb(94.86084%, 40.368652%, 22.438049%)" offset="0.03125"/><stop stop-opacity="1" stop-color="rgb(94.836426%, 40.080261%, 22.732544%)" offset="0.046875"/><stop stop-opacity="1" stop-color="rgb(94.812012%, 39.793396%, 23.025513%)" offset="0.0625"/><stop stop-opacity="1" stop-color="rgb(94.786072%, 39.506531%, 23.320007%)" offset="0.078125"/><stop stop-opacity="1" stop-color="rgb(94.761658%, 39.21814%, 23.614502%)" offset="0.09375"/><stop stop-opacity="1" stop-color="rgb(94.737244%, 38.931274%, 23.907471%)" offset="0.109375"/><stop stop-opacity="1" stop-color="rgb(94.711304%, 38.642883%, 24.201965%)" offset="0.125"/><stop stop-opacity="1" stop-color="rgb(94.68689%, 38.356018%, 24.494934%)" offset="0.140625"/><stop stop-opacity="1" stop-color="rgb(94.66095%, 38.067627%, 24.789429%)" offset="0.15625"/><stop stop-opacity="1" stop-color="rgb(94.636536%, 37.780762%, 25.082397%)" offset="0.171875"/><stop stop-opacity="1" stop-color="rgb(94.612122%, 37.492371%, 25.376892%)" offset="0.1875"/><stop stop-opacity="1" stop-color="rgb(94.586182%, 37.205505%, 25.669861%)" offset="0.203125"/><stop stop-opacity="1" stop-color="rgb(94.561768%, 36.91864%, 25.964355%)" offset="0.21875"/><stop stop-opacity="1" stop-color="rgb(94.535828%, 36.630249%, 26.257324%)" offset="0.234375"/><stop stop-opacity="1" stop-color="rgb(94.511414%, 36.343384%, 26.551819%)" offset="0.25"/><stop stop-opacity="1" stop-color="rgb(94.487%, 36.054993%, 26.844788%)" offset="0.265625"/><stop stop-opacity="1" stop-color="rgb(94.46106%, 35.768127%, 27.139282%)" offset="0.28125"/><stop stop-opacity="1" stop-color="rgb(94.436646%, 35.479736%, 27.433777%)" offset="0.296875"/><stop stop-opacity="1" stop-color="rgb(94.410706%, 35.192871%, 27.726746%)" offset="0.3125"/><stop stop-opacity="1" stop-color="rgb(94.386292%, 34.90448%, 28.02124%)" offset="0.328125"/><stop stop-opacity="1" stop-color="rgb(94.361877%, 34.617615%, 28.314209%)" offset="0.34375"/><stop stop-opacity="1" stop-color="rgb(94.335938%, 34.33075%, 28.608704%)" offset="0.359375"/><stop stop-opacity="1" stop-color="rgb(94.311523%, 34.042358%, 28.901672%)" offset="0.375"/><stop stop-opacity="1" stop-color="rgb(94.287109%, 33.755493%, 29.196167%)" offset="0.390625"/><stop stop-opacity="1" stop-color="rgb(94.261169%, 33.467102%, 29.489136%)" offset="0.40625"/><stop stop-opacity="1" stop-color="rgb(94.236755%, 33.180237%, 29.78363%)" offset="0.421875"/><stop stop-opacity="1" stop-color="rgb(94.210815%, 32.891846%, 30.076599%)" offset="0.4375"/><stop stop-opacity="1" stop-color="rgb(94.186401%, 32.60498%, 30.371094%)" offset="0.453125"/><stop stop-opacity="1" stop-color="rgb(94.161987%, 32.316589%, 30.664062%)" offset="0.46875"/><stop stop-opacity="1" stop-color="rgb(94.136047%, 32.029724%, 30.958557%)" offset="0.484375"/><stop stop-opacity="1" stop-color="rgb(94.111633%, 31.742859%, 31.253052%)" offset="0.5"/><stop stop-opacity="1" stop-color="rgb(94.085693%, 31.454468%, 31.546021%)" offset="0.515625"/><stop stop-opacity="1" stop-color="rgb(94.061279%, 31.167603%, 31.840515%)" offset="0.53125"/><stop stop-opacity="1" stop-color="rgb(94.036865%, 30.879211%, 32.133484%)" offset="0.546875"/><stop stop-opacity="1" stop-color="rgb(94.010925%, 30.592346%, 32.427979%)" offset="0.5625"/><stop stop-opacity="1" stop-color="rgb(93.986511%, 30.303955%, 32.720947%)" offset="0.578125"/><stop stop-opacity="1" stop-color="rgb(93.962097%, 30.01709%, 33.015442%)" offset="0.59375"/><stop stop-opacity="1" stop-color="rgb(93.936157%, 29.728699%, 33.308411%)" offset="0.609375"/><stop stop-opacity="1" stop-color="rgb(93.911743%, 29.441833%, 33.602905%)" offset="0.625"/><stop stop-opacity="1" stop-color="rgb(93.885803%, 29.154968%, 33.895874%)" offset="0.640625"/><stop stop-opacity="1" stop-color="rgb(93.861389%, 28.866577%, 34.190369%)" offset="0.65625"/><stop stop-opacity="1" stop-color="rgb(93.836975%, 28.579712%, 34.483337%)" offset="0.671875"/><stop stop-opacity="1" stop-color="rgb(93.811035%, 28.291321%, 34.777832%)" offset="0.6875"/><stop stop-opacity="1" stop-color="rgb(93.786621%, 28.004456%, 35.072327%)" offset="0.703125"/><stop stop-opacity="1" stop-color="rgb(93.760681%, 27.716064%, 35.365295%)" offset="0.71875"/><stop stop-opacity="1" stop-color="rgb(93.736267%, 27.429199%, 35.65979%)" offset="0.734375"/><stop stop-opacity="1" stop-color="rgb(93.711853%, 27.140808%, 35.952759%)" offset="0.75"/><stop stop-opacity="1" stop-color="rgb(93.685913%, 26.853943%, 36.247253%)" offset="0.765625"/><stop stop-opacity="1" stop-color="rgb(93.661499%, 26.567078%, 36.540222%)" offset="0.78125"/><stop stop-opacity="1" stop-color="rgb(93.637085%, 26.278687%, 36.834717%)" offset="0.796875"/><stop stop-opacity="1" stop-color="rgb(93.611145%, 25.991821%, 37.127686%)" offset="0.8125"/><stop stop-opacity="1" stop-color="rgb(93.586731%, 25.70343%, 37.42218%)" offset="0.828125"/><stop stop-opacity="1" stop-color="rgb(93.560791%, 25.416565%, 37.715149%)" offset="0.84375"/><stop stop-opacity="1" stop-color="rgb(93.536377%, 25.128174%, 38.009644%)" offset="0.859375"/><stop stop-opacity="1" stop-color="rgb(93.511963%, 24.841309%, 38.304138%)" offset="0.875"/><stop stop-opacity="1" stop-color="rgb(93.486023%, 24.554443%, 38.597107%)" offset="0.890625"/><stop stop-opacity="1" stop-color="rgb(93.461609%, 24.266052%, 38.891602%)" offset="0.90625"/><stop stop-opacity="1" stop-color="rgb(93.435669%, 23.979187%, 39.18457%)" offset="0.921875"/><stop stop-opacity="1" stop-color="rgb(93.411255%, 23.690796%, 39.479065%)" offset="0.9375"/><stop stop-opacity="1" stop-color="rgb(93.386841%, 23.403931%, 39.772034%)" offset="0.953125"/><stop stop-opacity="1" stop-color="rgb(93.360901%, 23.11554%, 40.066528%)" offset="0.96875"/><stop stop-opacity="1" stop-color="rgb(93.336487%, 22.828674%, 40.359497%)" offset="0.984375"/><stop stop-opacity="1" stop-color="rgb(93.312073%, 22.541809%, 40.652466%)" offset="1"/></linearGradient></defs><g clip-path="url(#9c6bdcdf05)"><g clip-path="url(#85682c8837)"><path fill="url(#ee57818c08)" d="M 10.242188 5.367188 L 10.242188 15.851562 L 22.175781 15.851562 L 22.175781 5.367188 Z M 10.242188 5.367188 " fill-rule="nonzero"/></g></g><g clip-path="url(#f7439af545)"><g clip-path="url(#f0e905513a)"><path fill="url(#2d5f1c5446)" d="M 6.617188 14.289062 L 6.617188 23.234375 L 25.808594 23.234375 L 25.808594 14.289062 Z M 6.617188 14.289062 " fill-rule="nonzero"/></g></g><g fill="#ee3968" fill-opacity="0.0784"><g transform="translate(33.666856, 21.07866)"><g><path d="M 2.0625 -2.234375 L 5.84375 -11.375 L 6.015625 -11.375 L 9.78125 -2.203125 C 10.03125 -1.578125 10.273438 -1.101562 10.515625 -0.78125 C 10.765625 -0.457031 11.082031 -0.296875 11.46875 -0.296875 L 11.46875 0 L 6.234375 0 L 6.234375 -0.296875 C 6.765625 -0.304688 7.113281 -0.34375 7.28125 -0.40625 C 7.457031 -0.476562 7.546875 -0.640625 7.546875 -0.890625 C 7.546875 -0.972656 7.523438 -1.0625 7.484375 -1.15625 C 7.453125 -1.25 7.425781 -1.332031 7.40625 -1.40625 L 6.703125 -3.15625 L 3.109375 -3.15625 L 2.609375 -1.9375 C 2.453125 -1.632812 2.375 -1.367188 2.375 -1.140625 C 2.375 -0.804688 2.5 -0.582031 2.75 -0.46875 C 3 -0.351562 3.351562 -0.296875 3.8125 -0.296875 L 3.8125 0 L 0.234375 0 L 0.234375 -0.296875 C 0.597656 -0.328125 0.925781 -0.492188 1.21875 -0.796875 C 1.507812 -1.097656 1.789062 -1.578125 2.0625 -2.234375 Z M 6.453125 -3.765625 L 4.90625 -7.515625 L 3.359375 -3.765625 Z M 6.453125 -3.765625 "/></g></g></g><g fill="#ee3968" fill-opacity="0.0784"><g transform="translate(45.384096, 21.07866)"><g><path d="M 10 -8.453125 C 10 -7.804688 9.769531 -7.257812 9.3125 -6.8125 C 8.863281 -6.363281 8.210938 -6.0625 7.359375 -5.90625 L 7.359375 -5.859375 C 8.316406 -5.722656 9.078125 -5.398438 9.640625 -4.890625 C 10.203125 -4.378906 10.484375 -3.753906 10.484375 -3.015625 C 10.484375 -2.378906 10.296875 -1.832031 9.921875 -1.375 C 9.546875 -0.925781 9.046875 -0.582031 8.421875 -0.34375 C 7.796875 -0.113281 7.117188 0 6.390625 0 L 0.25 0 L 0.25 -0.296875 C 0.644531 -0.296875 0.945312 -0.320312 1.15625 -0.375 C 1.363281 -0.4375 1.519531 -0.566406 1.625 -0.765625 C 1.726562 -0.960938 1.78125 -1.269531 1.78125 -1.6875 L 1.78125 -9.484375 C 1.78125 -9.878906 1.734375 -10.175781 1.640625 -10.375 C 1.546875 -10.570312 1.394531 -10.707031 1.1875 -10.78125 C 0.988281 -10.851562 0.707031 -10.894531 0.34375 -10.90625 L 0.34375 -11.203125 L 6.15625 -11.203125 C 6.75 -11.203125 7.335938 -11.113281 7.921875 -10.9375 C 8.503906 -10.757812 8.992188 -10.46875 9.390625 -10.0625 C 9.796875 -9.65625 10 -9.117188 10 -8.453125 Z M 4.828125 -6.109375 C 5.710938 -6.109375 6.335938 -6.332031 6.703125 -6.78125 C 7.078125 -7.238281 7.265625 -7.765625 7.265625 -8.359375 C 7.265625 -8.910156 7.101562 -9.421875 6.78125 -9.890625 C 6.457031 -10.359375 5.914062 -10.59375 5.15625 -10.59375 L 4.390625 -10.59375 L 4.390625 -6.109375 Z M 5.328125 -0.578125 C 6.003906 -0.578125 6.546875 -0.785156 6.953125 -1.203125 C 7.367188 -1.628906 7.578125 -2.195312 7.578125 -2.90625 C 7.578125 -3.644531 7.347656 -4.265625 6.890625 -4.765625 C 6.429688 -5.265625 5.71875 -5.515625 4.75 -5.515625 L 4.390625 -5.515625 L 4.390625 -1.65625 C 4.390625 -1.226562 4.460938 -0.941406 4.609375 -0.796875 C 4.765625 -0.648438 5.003906 -0.578125 5.328125 -0.578125 Z M 5.328125 -0.578125 "/></g></g></g><g fill="#ee3968" fill-opacity="0.0784"><g transform="translate(56.253916, 21.07866)"><g><path d="M 10.125 -8.09375 C 10.125 -7.414062 9.898438 -6.828125 9.453125 -6.328125 C 9.015625 -5.835938 8.421875 -5.5 7.671875 -5.3125 L 9.875 -1.71875 C 10.15625 -1.25 10.414062 -0.894531 10.65625 -0.65625 C 10.90625 -0.425781 11.15625 -0.304688 11.40625 -0.296875 L 11.40625 0 L 8.09375 0 L 4.984375 -5.09375 L 4.484375 -5.09375 L 4.484375 -1.6875 C 4.484375 -1.269531 4.539062 -0.960938 4.65625 -0.765625 C 4.769531 -0.566406 4.929688 -0.441406 5.140625 -0.390625 C 5.359375 -0.335938 5.6875 -0.304688 6.125 -0.296875 L 6.125 0 L 0.3125 0 L 0.3125 -0.296875 C 0.71875 -0.304688 1.023438 -0.335938 1.234375 -0.390625 C 1.453125 -0.453125 1.613281 -0.582031 1.71875 -0.78125 C 1.820312 -0.988281 1.875 -1.289062 1.875 -1.6875 L 1.875 -9.640625 C 1.875 -10.128906 1.75 -10.460938 1.5 -10.640625 C 1.257812 -10.816406 0.863281 -10.90625 0.3125 -10.90625 L 0.3125 -11.203125 L 6.0625 -11.203125 C 7.269531 -11.203125 8.25 -10.925781 9 -10.375 C 9.75 -9.832031 10.125 -9.070312 10.125 -8.09375 Z M 5.359375 -5.703125 C 5.898438 -5.703125 6.390625 -5.875 6.828125 -6.21875 C 7.265625 -6.5625 7.484375 -7.203125 7.484375 -8.140625 C 7.484375 -9.773438 6.695312 -10.59375 5.125 -10.59375 L 4.484375 -10.59375 L 4.484375 -5.703125 Z M 5.359375 -5.703125 "/></g></g></g><g fill="#ee3968" fill-opacity="0.0784"><g transform="translate(67.971156, 21.07866)"><g><path d="M 6.015625 -10.90625 C 5.597656 -10.894531 5.285156 -10.859375 5.078125 -10.796875 C 4.878906 -10.742188 4.722656 -10.617188 4.609375 -10.421875 C 4.503906 -10.234375 4.453125 -9.921875 4.453125 -9.484375 L 4.453125 -1.6875 C 4.453125 -1.269531 4.503906 -0.960938 4.609375 -0.765625 C 4.710938 -0.566406 4.863281 -0.441406 5.0625 -0.390625 C 5.269531 -0.335938 5.585938 -0.304688 6.015625 -0.296875 L 6.015625 0 L 0.28125 0 L 0.28125 -0.296875 C 0.6875 -0.296875 0.992188 -0.320312 1.203125 -0.375 C 1.410156 -0.425781 1.566406 -0.550781 1.671875 -0.75 C 1.785156 -0.957031 1.84375 -1.269531 1.84375 -1.6875 L 1.84375 -9.484375 C 1.84375 -9.910156 1.785156 -10.222656 1.671875 -10.421875 C 1.566406 -10.617188 1.40625 -10.742188 1.1875 -10.796875 C 0.976562 -10.859375 0.675781 -10.894531 0.28125 -10.90625 L 0.28125 -11.203125 L 6.015625 -11.203125 Z M 6.015625 -10.90625 "/></g></g></g><g fill="#ee3968" fill-opacity="0.0784"><g transform="translate(74.245335, 21.07866)"><g/></g></g><g fill="#ee3968" fill-opacity="0.0784"><g transform="translate(78.319479, 21.07866)"><g><path d="M 6.5625 -11.4375 C 7.132812 -11.4375 7.601562 -11.382812 7.96875 -11.28125 C 8.332031 -11.1875 8.726562 -11.054688 9.15625 -10.890625 C 9.195312 -10.867188 9.304688 -10.820312 9.484375 -10.75 C 9.671875 -10.675781 9.832031 -10.640625 9.96875 -10.640625 C 10.382812 -10.640625 10.640625 -10.898438 10.734375 -11.421875 L 11.0625 -11.421875 L 11.0625 -7.671875 L 10.734375 -7.671875 C 10.648438 -8.296875 10.429688 -8.835938 10.078125 -9.296875 C 9.722656 -9.753906 9.296875 -10.101562 8.796875 -10.34375 C 8.296875 -10.59375 7.785156 -10.71875 7.265625 -10.71875 C 6.523438 -10.71875 5.878906 -10.5 5.328125 -10.0625 C 4.785156 -9.625 4.367188 -9.015625 4.078125 -8.234375 C 3.796875 -7.453125 3.65625 -6.566406 3.65625 -5.578125 C 3.65625 -3.972656 3.96875 -2.71875 4.59375 -1.8125 C 5.226562 -0.90625 6.097656 -0.453125 7.203125 -0.453125 C 7.910156 -0.453125 8.546875 -0.617188 9.109375 -0.953125 C 9.671875 -1.296875 10.25 -1.8125 10.84375 -2.5 L 10.84375 -1.59375 C 10.226562 -0.957031 9.59375 -0.492188 8.9375 -0.203125 C 8.28125 0.0859375 7.53125 0.234375 6.6875 0.234375 C 5.488281 0.234375 4.441406 -0.015625 3.546875 -0.515625 C 2.648438 -1.015625 1.957031 -1.691406 1.46875 -2.546875 C 0.988281 -3.410156 0.75 -4.363281 0.75 -5.40625 C 0.75 -6.488281 1.007812 -7.488281 1.53125 -8.40625 C 2.0625 -9.332031 2.769531 -10.066406 3.65625 -10.609375 C 4.550781 -11.160156 5.519531 -11.4375 6.5625 -11.4375 Z M 6.5625 -11.4375 "/></g></g></g><g fill="#ee3968" fill-opacity="0.0784"><g transform="translate(90.036719, 21.07866)"><g><path d="M 6.6875 -11.4375 C 7.78125 -11.4375 8.785156 -11.203125 9.703125 -10.734375 C 10.628906 -10.265625 11.363281 -9.582031 11.90625 -8.6875 C 12.457031 -7.800781 12.734375 -6.757812 12.734375 -5.5625 C 12.734375 -4.476562 12.488281 -3.492188 12 -2.609375 C 11.507812 -1.734375 10.804688 -1.039062 9.890625 -0.53125 C 8.972656 -0.0195312 7.910156 0.234375 6.703125 0.234375 C 5.523438 0.234375 4.476562 -0.0078125 3.5625 -0.5 C 2.65625 -1 1.945312 -1.6875 1.4375 -2.5625 C 0.925781 -3.445312 0.671875 -4.460938 0.671875 -5.609375 C 0.671875 -6.722656 0.925781 -7.722656 1.4375 -8.609375 C 1.957031 -9.492188 2.671875 -10.1875 3.578125 -10.6875 C 4.492188 -11.1875 5.53125 -11.4375 6.6875 -11.4375 Z M 3.5625 -5.640625 C 3.5625 -4.765625 3.664062 -3.925781 3.875 -3.125 C 4.09375 -2.320312 4.429688 -1.65625 4.890625 -1.125 C 5.359375 -0.601562 5.957031 -0.34375 6.6875 -0.34375 C 7.3125 -0.34375 7.859375 -0.550781 8.328125 -0.96875 C 8.804688 -1.382812 9.175781 -1.976562 9.4375 -2.75 C 9.695312 -3.53125 9.828125 -4.441406 9.828125 -5.484375 C 9.828125 -6.617188 9.695312 -7.585938 9.4375 -8.390625 C 9.1875 -9.203125 8.820312 -9.816406 8.34375 -10.234375 C 7.875 -10.660156 7.328125 -10.875 6.703125 -10.875 C 6.117188 -10.875 5.59375 -10.679688 5.125 -10.296875 C 4.65625 -9.910156 4.273438 -9.320312 3.984375 -8.53125 C 3.703125 -7.738281 3.5625 -6.773438 3.5625 -5.640625 Z M 3.5625 -5.640625 "/></g></g></g><g fill="#ee3968" fill-opacity="0.0784"><g transform="translate(103.448811, 21.07866)"><g><path d="M 6.015625 -10.90625 C 5.597656 -10.894531 5.285156 -10.859375 5.078125 -10.796875 C 4.878906 -10.742188 4.722656 -10.617188 4.609375 -10.421875 C 4.503906 -10.234375 4.453125 -9.921875 4.453125 -9.484375 L 4.453125 -1.6875 C 4.453125 -1.269531 4.503906 -0.960938 4.609375 -0.765625 C 4.710938 -0.566406 4.863281 -0.441406 5.0625 -0.390625 C 5.269531 -0.335938 5.585938 -0.304688 6.015625 -0.296875 L 6.015625 0 L 0.28125 0 L 0.28125 -0.296875 C 0.6875 -0.296875 0.992188 -0.320312 1.203125 -0.375 C 1.410156 -0.425781 1.566406 -0.550781 1.671875 -0.75 C 1.785156 -0.957031 1.84375 -1.269531 1.84375 -1.6875 L 1.84375 -9.484375 C 1.84375 -9.910156 1.785156 -10.222656 1.671875 -10.421875 C 1.566406 -10.617188 1.40625 -10.742188 1.1875 -10.796875 C 0.976562 -10.859375 0.675781 -10.894531 0.28125 -10.90625 L 0.28125 -11.203125 L 6.015625 -11.203125 Z M 6.015625 -10.90625 "/></g></g></g><g fill="#ee3968" fill-opacity="0.0784"><g transform="translate(109.72299, 21.07866)"><g><path d="M 10.359375 -3.921875 L 10.359375 -9.484375 C 10.359375 -9.992188 10.222656 -10.359375 9.953125 -10.578125 C 9.691406 -10.796875 9.269531 -10.90625 8.6875 -10.90625 L 8.6875 -11.203125 L 12.34375 -11.203125 L 12.34375 -10.90625 C 11.863281 -10.90625 11.507812 -10.773438 11.28125 -10.515625 C 11.050781 -10.253906 10.9375 -9.910156 10.9375 -9.484375 L 10.9375 0.15625 L 10.65625 0.15625 L 2.390625 -9.15625 L 2.390625 -1.640625 C 2.390625 -1.128906 2.523438 -0.773438 2.796875 -0.578125 C 3.066406 -0.390625 3.488281 -0.296875 4.0625 -0.296875 L 4.171875 -0.296875 L 4.171875 0 L 0.25 0 L 0.25 -0.296875 C 1.300781 -0.296875 1.828125 -0.726562 1.828125 -1.59375 L 1.828125 -9.8125 C 1.765625 -9.875 1.628906 -10.015625 1.421875 -10.234375 C 1.222656 -10.460938 1.03125 -10.628906 0.84375 -10.734375 C 0.664062 -10.835938 0.46875 -10.894531 0.25 -10.90625 L 0.25 -11.203125 L 3.953125 -11.203125 Z M 10.359375 -3.921875 "/></g></g></g><g fill="#f26739" fill-opacity="1"><g transform="translate(32.822099, 20.508865)"><g><path d="M 2.0625 -2.234375 L 5.84375 -11.375 L 6.015625 -11.375 L 9.78125 -2.203125 C 10.03125 -1.578125 10.273438 -1.101562 10.515625 -0.78125 C 10.765625 -0.457031 11.082031 -0.296875 11.46875 -0.296875 L 11.46875 0 L 6.234375 0 L 6.234375 -0.296875 C 6.765625 -0.304688 7.113281 -0.34375 7.28125 -0.40625 C 7.457031 -0.476562 7.546875 -0.640625 7.546875 -0.890625 C 7.546875 -0.972656 7.523438 -1.0625 7.484375 -1.15625 C 7.453125 -1.25 7.425781 -1.332031 7.40625 -1.40625 L 6.703125 -3.15625 L 3.109375 -3.15625 L 2.609375 -1.9375 C 2.453125 -1.632812 2.375 -1.367188 2.375 -1.140625 C 2.375 -0.804688 2.5 -0.582031 2.75 -0.46875 C 3 -0.351562 3.351562 -0.296875 3.8125 -0.296875 L 3.8125 0 L 0.234375 0 L 0.234375 -0.296875 C 0.597656 -0.328125 0.925781 -0.492188 1.21875 -0.796875 C 1.507812 -1.097656 1.789062 -1.578125 2.0625 -2.234375 Z M 6.453125 -3.765625 L 4.90625 -7.515625 L 3.359375 -3.765625 Z M 6.453125 -3.765625 "/></g></g></g><g fill="#f26739" fill-opacity="1"><g transform="translate(44.539339, 20.508865)"><g><path d="M 10 -8.453125 C 10 -7.804688 9.769531 -7.257812 9.3125 -6.8125 C 8.863281 -6.363281 8.210938 -6.0625 7.359375 -5.90625 L 7.359375 -5.859375 C 8.316406 -5.722656 9.078125 -5.398438 9.640625 -4.890625 C 10.203125 -4.378906 10.484375 -3.753906 10.484375 -3.015625 C 10.484375 -2.378906 10.296875 -1.832031 9.921875 -1.375 C 9.546875 -0.925781 9.046875 -0.582031 8.421875 -0.34375 C 7.796875 -0.113281 7.117188 0 6.390625 0 L 0.25 0 L 0.25 -0.296875 C 0.644531 -0.296875 0.945312 -0.320312 1.15625 -0.375 C 1.363281 -0.4375 1.519531 -0.566406 1.625 -0.765625 C 1.726562 -0.960938 1.78125 -1.269531 1.78125 -1.6875 L 1.78125 -9.484375 C 1.78125 -9.878906 1.734375 -10.175781 1.640625 -10.375 C 1.546875 -10.570312 1.394531 -10.707031 1.1875 -10.78125 C 0.988281 -10.851562 0.707031 -10.894531 0.34375 -10.90625 L 0.34375 -11.203125 L 6.15625 -11.203125 C 6.75 -11.203125 7.335938 -11.113281 7.921875 -10.9375 C 8.503906 -10.757812 8.992188 -10.46875 9.390625 -10.0625 C 9.796875 -9.65625 10 -9.117188 10 -8.453125 Z M 4.828125 -6.109375 C 5.710938 -6.109375 6.335938 -6.332031 6.703125 -6.78125 C 7.078125 -7.238281 7.265625 -7.765625 7.265625 -8.359375 C 7.265625 -8.910156 7.101562 -9.421875 6.78125 -9.890625 C 6.457031 -10.359375 5.914062 -10.59375 5.15625 -10.59375 L 4.390625 -10.59375 L 4.390625 -6.109375 Z M 5.328125 -0.578125 C 6.003906 -0.578125 6.546875 -0.785156 6.953125 -1.203125 C 7.367188 -1.628906 7.578125 -2.195312 7.578125 -2.90625 C 7.578125 -3.644531 7.347656 -4.265625 6.890625 -4.765625 C 6.429688 -5.265625 5.71875 -5.515625 4.75 -5.515625 L 4.390625 -5.515625 L 4.390625 -1.65625 C 4.390625 -1.226562 4.460938 -0.941406 4.609375 -0.796875 C 4.765625 -0.648438 5.003906 -0.578125 5.328125 -0.578125 Z M 5.328125 -0.578125 "/></g></g></g><g fill="#f26739" fill-opacity="1"><g transform="translate(55.409159, 20.508865)"><g><path d="M 10.125 -8.09375 C 10.125 -7.414062 9.898438 -6.828125 9.453125 -6.328125 C 9.015625 -5.835938 8.421875 -5.5 7.671875 -5.3125 L 9.875 -1.71875 C 10.15625 -1.25 10.414062 -0.894531 10.65625 -0.65625 C 10.90625 -0.425781 11.15625 -0.304688 11.40625 -0.296875 L 11.40625 0 L 8.09375 0 L 4.984375 -5.09375 L 4.484375 -5.09375 L 4.484375 -1.6875 C 4.484375 -1.269531 4.539062 -0.960938 4.65625 -0.765625 C 4.769531 -0.566406 4.929688 -0.441406 5.140625 -0.390625 C 5.359375 -0.335938 5.6875 -0.304688 6.125 -0.296875 L 6.125 0 L 0.3125 0 L 0.3125 -0.296875 C 0.71875 -0.304688 1.023438 -0.335938 1.234375 -0.390625 C 1.453125 -0.453125 1.613281 -0.582031 1.71875 -0.78125 C 1.820312 -0.988281 1.875 -1.289062 1.875 -1.6875 L 1.875 -9.640625 C 1.875 -10.128906 1.75 -10.460938 1.5 -10.640625 C 1.257812 -10.816406 0.863281 -10.90625 0.3125 -10.90625 L 0.3125 -11.203125 L 6.0625 -11.203125 C 7.269531 -11.203125 8.25 -10.925781 9 -10.375 C 9.75 -9.832031 10.125 -9.070312 10.125 -8.09375 Z M 5.359375 -5.703125 C 5.898438 -5.703125 6.390625 -5.875 6.828125 -6.21875 C 7.265625 -6.5625 7.484375 -7.203125 7.484375 -8.140625 C 7.484375 -9.773438 6.695312 -10.59375 5.125 -10.59375 L 4.484375 -10.59375 L 4.484375 -5.703125 Z M 5.359375 -5.703125 "/></g></g></g><g fill="#f26739" fill-opacity="1"><g transform="translate(67.126399, 20.508865)"><g><path d="M 6.015625 -10.90625 C 5.597656 -10.894531 5.285156 -10.859375 5.078125 -10.796875 C 4.878906 -10.742188 4.722656 -10.617188 4.609375 -10.421875 C 4.503906 -10.234375 4.453125 -9.921875 4.453125 -9.484375 L 4.453125 -1.6875 C 4.453125 -1.269531 4.503906 -0.960938 4.609375 -0.765625 C 4.710938 -0.566406 4.863281 -0.441406 5.0625 -0.390625 C 5.269531 -0.335938 5.585938 -0.304688 6.015625 -0.296875 L 6.015625 0 L 0.28125 0 L 0.28125 -0.296875 C 0.6875 -0.296875 0.992188 -0.320312 1.203125 -0.375 C 1.410156 -0.425781 1.566406 -0.550781 1.671875 -0.75 C 1.785156 -0.957031 1.84375 -1.269531 1.84375 -1.6875 L 1.84375 -9.484375 C 1.84375 -9.910156 1.785156 -10.222656 1.671875 -10.421875 C 1.566406 -10.617188 1.40625 -10.742188 1.1875 -10.796875 C 0.976562 -10.859375 0.675781 -10.894531 0.28125 -10.90625 L 0.28125 -11.203125 L 6.015625 -11.203125 Z M 6.015625 -10.90625 "/></g></g></g><g fill="#f26739" fill-opacity="1"><g transform="translate(73.400578, 20.508865)"><g/></g></g><g fill="#f26739" fill-opacity="1"><g transform="translate(77.474723, 20.508865)"><g><path d="M 6.5625 -11.4375 C 7.132812 -11.4375 7.601562 -11.382812 7.96875 -11.28125 C 8.332031 -11.1875 8.726562 -11.054688 9.15625 -10.890625 C 9.195312 -10.867188 9.304688 -10.820312 9.484375 -10.75 C 9.671875 -10.675781 9.832031 -10.640625 9.96875 -10.640625 C 10.382812 -10.640625 10.640625 -10.898438 10.734375 -11.421875 L 11.0625 -11.421875 L 11.0625 -7.671875 L 10.734375 -7.671875 C 10.648438 -8.296875 10.429688 -8.835938 10.078125 -9.296875 C 9.722656 -9.753906 9.296875 -10.101562 8.796875 -10.34375 C 8.296875 -10.59375 7.785156 -10.71875 7.265625 -10.71875 C 6.523438 -10.71875 5.878906 -10.5 5.328125 -10.0625 C 4.785156 -9.625 4.367188 -9.015625 4.078125 -8.234375 C 3.796875 -7.453125 3.65625 -6.566406 3.65625 -5.578125 C 3.65625 -3.972656 3.96875 -2.71875 4.59375 -1.8125 C 5.226562 -0.90625 6.097656 -0.453125 7.203125 -0.453125 C 7.910156 -0.453125 8.546875 -0.617188 9.109375 -0.953125 C 9.671875 -1.296875 10.25 -1.8125 10.84375 -2.5 L 10.84375 -1.59375 C 10.226562 -0.957031 9.59375 -0.492188 8.9375 -0.203125 C 8.28125 0.0859375 7.53125 0.234375 6.6875 0.234375 C 5.488281 0.234375 4.441406 -0.015625 3.546875 -0.515625 C 2.648438 -1.015625 1.957031 -1.691406 1.46875 -2.546875 C 0.988281 -3.410156 0.75 -4.363281 0.75 -5.40625 C 0.75 -6.488281 1.007812 -7.488281 1.53125 -8.40625 C 2.0625 -9.332031 2.769531 -10.066406 3.65625 -10.609375 C 4.550781 -11.160156 5.519531 -11.4375 6.5625 -11.4375 Z M 6.5625 -11.4375 "/></g></g></g><g fill="#f26739" fill-opacity="1"><g transform="translate(89.191963, 20.508865)"><g><path d="M 6.6875 -11.4375 C 7.78125 -11.4375 8.785156 -11.203125 9.703125 -10.734375 C 10.628906 -10.265625 11.363281 -9.582031 11.90625 -8.6875 C 12.457031 -7.800781 12.734375 -6.757812 12.734375 -5.5625 C 12.734375 -4.476562 12.488281 -3.492188 12 -2.609375 C 11.507812 -1.734375 10.804688 -1.039062 9.890625 -0.53125 C 8.972656 -0.0195312 7.910156 0.234375 6.703125 0.234375 C 5.523438 0.234375 4.476562 -0.0078125 3.5625 -0.5 C 2.65625 -1 1.945312 -1.6875 1.4375 -2.5625 C 0.925781 -3.445312 0.671875 -4.460938 0.671875 -5.609375 C 0.671875 -6.722656 0.925781 -7.722656 1.4375 -8.609375 C 1.957031 -9.492188 2.671875 -10.1875 3.578125 -10.6875 C 4.492188 -11.1875 5.53125 -11.4375 6.6875 -11.4375 Z M 3.5625 -5.640625 C 3.5625 -4.765625 3.664062 -3.925781 3.875 -3.125 C 4.09375 -2.320312 4.429688 -1.65625 4.890625 -1.125 C 5.359375 -0.601562 5.957031 -0.34375 6.6875 -0.34375 C 7.3125 -0.34375 7.859375 -0.550781 8.328125 -0.96875 C 8.804688 -1.382812 9.175781 -1.976562 9.4375 -2.75 C 9.695312 -3.53125 9.828125 -4.441406 9.828125 -5.484375 C 9.828125 -6.617188 9.695312 -7.585938 9.4375 -8.390625 C 9.1875 -9.203125 8.820312 -9.816406 8.34375 -10.234375 C 7.875 -10.660156 7.328125 -10.875 6.703125 -10.875 C 6.117188 -10.875 5.59375 -10.679688 5.125 -10.296875 C 4.65625 -9.910156 4.273438 -9.320312 3.984375 -8.53125 C 3.703125 -7.738281 3.5625 -6.773438 3.5625 -5.640625 Z M 3.5625 -5.640625 "/></g></g></g><g fill="#f26739" fill-opacity="1"><g transform="translate(102.604055, 20.508865)"><g><path d="M 6.015625 -10.90625 C 5.597656 -10.894531 5.285156 -10.859375 5.078125 -10.796875 C 4.878906 -10.742188 4.722656 -10.617188 4.609375 -10.421875 C 4.503906 -10.234375 4.453125 -9.921875 4.453125 -9.484375 L 4.453125 -1.6875 C 4.453125 -1.269531 4.503906 -0.960938 4.609375 -0.765625 C 4.710938 -0.566406 4.863281 -0.441406 5.0625 -0.390625 C 5.269531 -0.335938 5.585938 -0.304688 6.015625 -0.296875 L 6.015625 0 L 0.28125 0 L 0.28125 -0.296875 C 0.6875 -0.296875 0.992188 -0.320312 1.203125 -0.375 C 1.410156 -0.425781 1.566406 -0.550781 1.671875 -0.75 C 1.785156 -0.957031 1.84375 -1.269531 1.84375 -1.6875 L 1.84375 -9.484375 C 1.84375 -9.910156 1.785156 -10.222656 1.671875 -10.421875 C 1.566406 -10.617188 1.40625 -10.742188 1.1875 -10.796875 C 0.976562 -10.859375 0.675781 -10.894531 0.28125 -10.90625 L 0.28125 -11.203125 L 6.015625 -11.203125 Z M 6.015625 -10.90625 "/></g></g></g><g fill="#f26739" fill-opacity="1"><g transform="translate(108.878233, 20.508865)"><g><path d="M 10.359375 -3.921875 L 10.359375 -9.484375 C 10.359375 -9.992188 10.222656 -10.359375 9.953125 -10.578125 C 9.691406 -10.796875 9.269531 -10.90625 8.6875 -10.90625 L 8.6875 -11.203125 L 12.34375 -11.203125 L 12.34375 -10.90625 C 11.863281 -10.90625 11.507812 -10.773438 11.28125 -10.515625 C 11.050781 -10.253906 10.9375 -9.910156 10.9375 -9.484375 L 10.9375 0.15625 L 10.65625 0.15625 L 2.390625 -9.15625 L 2.390625 -1.640625 C 2.390625 -1.128906 2.523438 -0.773438 2.796875 -0.578125 C 3.066406 -0.390625 3.488281 -0.296875 4.0625 -0.296875 L 4.171875 -0.296875 L 4.171875 0 L 0.25 0 L 0.25 -0.296875 C 1.300781 -0.296875 1.828125 -0.726562 1.828125 -1.59375 L 1.828125 -9.8125 C 1.765625 -9.875 1.628906 -10.015625 1.421875 -10.234375 C 1.222656 -10.460938 1.03125 -10.628906 0.84375 -10.734375 C 0.664062 -10.835938 0.46875 -10.894531 0.25 -10.90625 L 0.25 -11.203125 L 3.953125 -11.203125 Z M 10.359375 -3.921875 "/></g></g></g></svg>