<svg id="svg" version="1.1" xmlns="http://www.w3.org/2000/svg" xmlns:xlink="http://www.w3.org/1999/xlink" width="400" height="400" viewBox="0, 0, 400,400"><g id="svgg"><path id="path0" d="M71.595 152.011 C 71.268 152.218,70.514 152.391,69.920 152.394 C 68.752 152.400,65.788 153.127,62.600 154.188 C 60.682 154.827,59.823 155.177,56.500 156.677 C 46.902 161.009,36.014 172.953,32.869 182.600 C 32.582 183.480,32.190 184.560,31.997 185.000 C 30.675 188.019,30.947 191.451,32.525 191.675 C 33.211 191.773,33.422 192.103,33.500 193.200 C 33.555 193.970,33.703 195.545,33.829 196.700 L 34.058 198.800 36.429 198.800 C 38.605 198.800,38.800 198.728,38.800 197.920 C 38.800 196.681,39.497 197.509,39.709 199.000 C 39.819 199.770,39.913 199.411,39.973 198.000 C 40.134 194.169,41.004 190.068,42.257 187.241 C 43.890 183.556,44.893 181.575,45.808 180.227 C 46.353 179.423,46.800 178.668,46.800 178.550 C 46.800 178.197,49.662 174.862,51.800 172.726 C 54.785 169.742,60.140 166.319,64.200 164.799 C 64.640 164.634,65.503 164.297,66.119 164.050 C 66.734 163.802,67.669 163.600,68.195 163.600 C 68.722 163.600,69.264 163.420,69.400 163.200 C 69.536 162.980,70.324 162.800,71.150 162.800 C 71.977 162.800,73.721 162.600,75.027 162.355 C 79.704 161.478,90.048 163.426,94.693 166.059 C 95.412 166.467,96.674 167.182,97.498 167.648 C 101.911 170.147,109.200 177.019,109.200 178.680 C 109.200 178.883,109.546 179.421,109.969 179.875 C 111.599 181.625,115.200 190.236,115.200 192.385 C 115.200 192.807,115.342 193.240,115.515 193.347 C 115.688 193.454,115.874 194.677,115.929 196.065 C 115.984 197.453,116.192 198.752,116.392 198.952 C 116.610 199.170,116.670 198.990,116.543 198.503 C 116.426 198.056,116.526 197.569,116.765 197.422 C 117.025 197.261,117.200 197.485,117.200 197.976 C 117.200 198.716,117.444 198.800,119.600 198.800 L 122.000 198.800 122.043 197.300 C 122.066 196.475,122.095 194.855,122.106 193.700 C 122.127 191.501,122.527 191.221,125.140 191.579 C 125.437 191.620,125.590 191.506,125.480 191.327 C 125.369 191.147,125.167 190.280,125.029 189.400 C 124.339 184.989,119.498 173.200,118.376 173.200 C 118.169 173.200,118.000 173.019,118.000 172.799 C 118.000 171.513,111.283 164.538,106.705 161.069 C 103.567 158.691,96.407 154.819,95.124 154.807 C 94.752 154.803,94.336 154.620,94.200 154.400 C 94.064 154.180,93.524 154.000,93.000 154.000 C 92.476 154.000,91.948 153.840,91.827 153.644 C 91.706 153.449,91.021 153.186,90.304 153.061 C 89.587 152.936,88.010 152.631,86.800 152.383 C 83.955 151.802,72.375 151.518,71.595 152.011 M76.900 197.918 C 72.510 198.095,73.389 198.800,78.000 198.800 C 80.200 198.800,82.000 198.640,82.000 198.445 C 82.000 197.954,80.313 197.779,76.900 197.918 " stroke="none" fill="#141c34" fill-rule="evenodd"></path><path id="path1" d="M84.600 152.000 C 85.693 152.469,86.000 152.469,86.000 152.000 C 86.000 151.780,85.505 151.613,84.900 151.628 C 83.925 151.653,83.891 151.695,84.600 152.000 M66.000 152.800 C 66.000 153.269,66.307 153.269,67.400 152.800 C 68.109 152.495,68.075 152.453,67.100 152.428 C 66.495 152.413,66.000 152.580,66.000 152.800 M88.800 152.800 C 89.576 153.301,90.000 153.301,90.000 152.800 C 90.000 152.580,89.595 152.403,89.100 152.406 C 88.372 152.411,88.315 152.486,88.800 152.800 M62.800 153.600 C 62.800 154.106,63.617 154.106,64.400 153.600 C 64.868 153.298,64.757 153.211,63.900 153.206 C 63.295 153.203,62.800 153.380,62.800 153.600 M91.800 153.600 C 91.936 153.820,92.307 154.000,92.624 154.000 C 92.941 154.000,93.200 153.820,93.200 153.600 C 93.200 153.380,92.829 153.200,92.376 153.200 C 91.923 153.200,91.664 153.380,91.800 153.600 M52.060 158.642 C 51.245 159.563,51.682 159.645,52.806 158.782 C 53.456 158.282,53.592 158.020,53.200 158.024 C 52.870 158.028,52.357 158.305,52.060 158.642 M102.400 158.190 C 102.400 158.294,102.985 158.675,103.700 159.037 C 104.415 159.398,105.405 160.064,105.900 160.517 C 106.395 160.969,106.800 161.210,106.800 161.052 C 106.800 160.511,104.838 158.800,104.218 158.800 C 103.878 158.800,103.600 158.620,103.600 158.400 C 103.600 158.180,103.330 158.000,103.000 158.000 C 102.670 158.000,102.400 158.085,102.400 158.190 M49.660 160.242 C 48.845 161.163,49.282 161.245,50.406 160.382 C 51.056 159.882,51.192 159.620,50.800 159.624 C 50.470 159.628,49.957 159.905,49.660 160.242 M46.062 163.058 C 43.697 165.507,44.113 165.572,46.728 163.161 C 47.898 162.083,48.618 161.213,48.328 161.229 C 48.038 161.245,47.018 162.068,46.062 163.058 M108.849 162.760 C 109.812 163.618,110.663 164.260,110.740 164.187 C 110.982 163.956,108.050 161.200,107.562 161.200 C 107.306 161.200,107.885 161.902,108.849 162.760 M74.800 162.400 C 73.433 162.688,73.444 162.696,75.300 162.747 C 76.345 162.776,77.200 162.620,77.200 162.400 C 77.200 161.961,76.885 161.961,74.800 162.400 M78.800 162.395 C 78.800 162.618,79.640 162.800,80.667 162.800 C 82.888 162.800,82.830 162.608,80.500 162.251 C 79.449 162.090,78.800 162.145,78.800 162.395 M69.400 163.200 C 69.264 163.420,69.523 163.600,69.976 163.600 C 70.429 163.600,70.800 163.420,70.800 163.200 C 70.800 162.980,70.541 162.800,70.224 162.800 C 69.907 162.800,69.536 162.980,69.400 163.200 M85.200 163.200 C 85.200 163.420,85.695 163.597,86.300 163.594 C 87.157 163.589,87.268 163.502,86.800 163.200 C 86.017 162.694,85.200 162.694,85.200 163.200 M66.400 164.000 C 65.915 164.314,65.972 164.389,66.700 164.394 C 67.195 164.397,67.600 164.220,67.600 164.000 C 67.600 163.499,67.176 163.499,66.400 164.000 M88.400 164.000 C 88.400 164.220,88.805 164.397,89.300 164.394 C 90.028 164.389,90.085 164.314,89.600 164.000 C 88.824 163.499,88.400 163.499,88.400 164.000 M90.800 164.800 C 90.800 165.020,91.205 165.197,91.700 165.194 C 92.428 165.189,92.485 165.114,92.000 164.800 C 91.224 164.299,90.800 164.299,90.800 164.800 M62.200 165.600 C 62.064 165.820,62.323 166.000,62.776 166.000 C 63.229 166.000,63.600 165.820,63.600 165.600 C 63.600 165.380,63.341 165.200,63.024 165.200 C 62.707 165.200,62.336 165.380,62.200 165.600 M58.394 167.618 C 57.847 168.039,57.638 168.386,57.929 168.391 C 58.486 168.400,59.804 167.271,59.542 167.008 C 59.457 166.924,58.941 167.198,58.394 167.618 M40.100 169.016 C 39.385 169.765,38.800 170.596,38.800 170.864 C 38.800 171.132,39.190 170.912,39.667 170.375 C 40.143 169.839,40.895 168.995,41.336 168.500 C 42.619 167.062,41.533 167.516,40.100 169.016 M115.458 169.445 C 116.290 170.460,117.035 171.096,117.113 170.860 C 117.250 170.451,114.690 167.600,114.187 167.600 C 114.054 167.600,114.627 168.430,115.458 169.445 M55.994 169.218 C 55.447 169.639,55.238 169.986,55.529 169.991 C 56.086 170.000,57.404 168.871,57.142 168.608 C 57.057 168.524,56.541 168.798,55.994 169.218 M98.800 168.619 C 98.800 169.105,100.023 170.059,100.458 169.914 C 100.706 169.831,100.435 169.453,99.855 169.073 C 99.275 168.693,98.800 168.489,98.800 168.619 M51.852 172.652 C 50.364 174.097,49.235 175.368,49.343 175.477 C 49.452 175.585,50.741 174.474,52.207 173.007 C 53.674 171.541,54.803 170.270,54.716 170.183 C 54.629 170.096,53.340 171.207,51.852 172.652 M101.200 170.137 C 101.200 170.518,107.223 176.510,107.414 176.319 C 107.576 176.158,104.154 172.495,102.288 170.830 C 101.689 170.297,101.200 169.985,101.200 170.137 M37.671 172.229 C 37.380 172.558,37.209 173.026,37.289 173.268 C 37.370 173.511,37.747 173.235,38.127 172.655 C 38.866 171.528,38.550 171.234,37.671 172.229 M36.100 174.598 C 35.825 174.911,35.600 175.429,35.600 175.750 C 35.600 176.071,35.393 176.402,35.140 176.487 C 34.887 176.571,34.763 176.889,34.865 177.194 C 34.975 177.525,35.470 176.995,36.096 175.874 C 37.114 174.053,37.116 173.445,36.100 174.598 M47.426 177.572 C 47.011 178.030,46.782 178.515,46.917 178.650 C 47.260 178.993,48.496 177.687,48.322 177.166 C 48.244 176.931,47.840 177.114,47.426 177.572 M107.600 177.140 C 107.600 177.424,107.879 177.936,108.219 178.276 C 108.560 178.617,108.955 178.779,109.097 178.637 C 109.239 178.494,108.961 177.983,108.478 177.500 C 107.945 176.968,107.600 176.826,107.600 177.140 M110.000 180.800 C 110.000 181.020,110.180 181.200,110.400 181.200 C 110.620 181.200,110.800 181.560,110.800 182.000 C 110.800 182.440,110.980 182.800,111.200 182.800 C 111.420 182.800,111.600 183.160,111.600 183.600 C 111.600 184.040,111.780 184.400,112.000 184.400 C 112.220 184.400,112.400 184.760,112.400 185.200 C 112.400 185.640,112.580 186.000,112.800 186.000 C 113.370 186.000,113.340 185.899,111.914 183.008 C 110.740 180.627,110.000 179.773,110.000 180.800 M32.406 182.300 C 32.411 183.157,32.498 183.268,32.800 182.800 C 33.306 182.017,33.306 181.200,32.800 181.200 C 32.580 181.200,32.403 181.695,32.406 182.300 M122.806 181.500 C 122.824 182.377,123.588 182.959,123.594 182.100 C 123.597 181.605,123.420 181.200,123.200 181.200 C 122.980 181.200,122.803 181.335,122.806 181.500 M31.600 184.424 C 31.600 184.877,31.780 185.136,32.000 185.000 C 32.220 184.864,32.400 184.493,32.400 184.176 C 32.400 183.859,32.220 183.600,32.000 183.600 C 31.780 183.600,31.600 183.971,31.600 184.424 M123.628 183.900 C 123.738 185.073,124.346 185.726,124.372 184.700 C 124.387 184.095,124.220 183.600,124.000 183.600 C 123.780 183.600,123.613 183.735,123.628 183.900 M30.800 187.600 C 30.800 188.480,30.620 189.200,30.400 189.200 C 30.178 189.200,30.000 190.259,30.000 191.576 C 30.000 192.883,29.820 194.064,29.600 194.200 C 29.366 194.345,29.200 196.663,29.200 199.800 C 29.200 202.937,29.366 205.255,29.600 205.400 C 29.820 205.536,30.000 206.807,30.000 208.224 C 30.000 209.675,30.175 210.800,30.400 210.800 C 30.620 210.800,30.800 211.520,30.800 212.400 C 30.800 213.280,30.980 214.000,31.200 214.000 C 31.420 214.000,31.600 214.540,31.600 215.200 C 31.600 215.860,31.780 216.400,32.000 216.400 C 32.220 216.400,32.400 216.940,32.400 217.600 C 32.400 218.260,32.580 218.800,32.800 218.800 C 33.020 218.800,33.200 219.160,33.200 219.600 C 33.200 220.040,33.380 220.400,33.600 220.400 C 33.820 220.400,34.000 220.760,34.000 221.200 C 34.000 221.640,34.180 222.000,34.400 222.000 C 34.620 222.000,34.800 222.360,34.800 222.800 C 34.800 223.240,34.980 223.600,35.200 223.600 C 35.420 223.600,35.600 223.960,35.600 224.400 C 35.600 224.840,35.780 225.200,36.000 225.200 C 36.220 225.200,36.400 225.520,36.400 225.912 C 36.400 226.303,36.760 226.883,37.200 227.200 C 37.640 227.517,38.000 228.019,38.000 228.314 C 38.000 228.610,38.900 229.729,40.000 230.800 C 41.100 231.871,42.000 232.946,42.000 233.187 C 42.000 233.762,44.643 236.400,45.218 236.400 C 45.463 236.400,46.354 237.120,47.200 238.000 C 48.046 238.880,48.982 239.600,49.280 239.600 C 49.579 239.600,50.083 239.960,50.400 240.400 C 50.717 240.840,51.257 241.200,51.600 241.200 C 51.943 241.200,52.483 241.560,52.800 242.000 C 53.117 242.440,53.697 242.800,54.088 242.800 C 54.480 242.800,54.800 242.980,54.800 243.200 C 54.800 243.420,55.160 243.600,55.600 243.600 C 56.040 243.600,56.400 243.780,56.400 244.000 C 56.400 244.220,56.760 244.400,57.200 244.400 C 57.640 244.400,58.000 244.580,58.000 244.800 C 58.000 245.020,58.540 245.200,59.200 245.200 C 59.860 245.200,60.400 245.380,60.400 245.600 C 60.400 245.820,60.940 246.000,61.600 246.000 C 62.260 246.000,62.800 246.180,62.800 246.400 C 62.800 246.620,63.340 246.800,64.000 246.800 C 64.660 246.800,65.200 246.980,65.200 247.200 C 65.200 247.420,65.920 247.600,66.800 247.600 C 67.680 247.600,68.400 247.780,68.400 248.000 C 68.400 248.256,71.867 248.400,78.000 248.400 C 84.133 248.400,87.600 248.256,87.600 248.000 C 87.600 247.780,88.320 247.600,89.200 247.600 C 90.080 247.600,90.800 247.420,90.800 247.200 C 90.800 246.980,91.340 246.800,92.000 246.800 C 92.660 246.800,93.200 246.620,93.200 246.400 C 93.200 246.180,93.740 246.000,94.400 246.000 C 95.060 246.000,95.600 245.820,95.600 245.600 C 95.600 245.380,96.140 245.200,96.800 245.200 C 97.460 245.200,98.000 245.020,98.000 244.800 C 98.000 244.580,98.360 244.400,98.800 244.400 C 99.240 244.400,99.600 244.220,99.600 244.000 C 99.600 243.780,99.960 243.600,100.400 243.600 C 100.840 243.600,101.200 243.420,101.200 243.200 C 101.200 242.980,101.520 242.800,101.912 242.800 C 102.303 242.800,102.883 242.440,103.200 242.000 C 103.517 241.560,104.057 241.200,104.400 241.200 C 104.743 241.200,105.283 240.840,105.600 240.400 C 105.917 239.960,106.425 239.600,106.728 239.600 C 107.031 239.600,107.783 239.060,108.400 238.400 C 109.017 237.740,109.723 237.200,109.969 237.200 C 110.548 237.200,114.800 232.956,114.800 232.377 C 114.800 232.135,115.520 231.246,116.400 230.400 C 117.280 229.554,118.000 228.618,118.000 228.320 C 118.000 228.021,118.360 227.517,118.800 227.200 C 119.240 226.883,119.600 226.303,119.600 225.912 C 119.600 225.520,119.780 225.200,120.000 225.200 C 120.220 225.200,120.400 224.840,120.400 224.400 C 120.400 223.960,120.580 223.600,120.800 223.600 C 121.020 223.600,121.200 223.240,121.200 222.800 C 121.200 222.360,121.380 222.000,121.600 222.000 C 121.820 222.000,122.000 221.640,122.000 221.200 C 122.000 220.760,122.180 220.400,122.400 220.400 C 122.620 220.400,122.800 220.040,122.800 219.600 C 122.800 219.160,122.980 218.800,123.200 218.800 C 123.420 218.800,123.600 218.260,123.600 217.600 C 123.600 216.940,123.780 216.400,124.000 216.400 C 124.220 216.400,124.400 215.860,124.400 215.200 C 124.400 214.540,124.580 214.000,124.800 214.000 C 125.020 214.000,125.200 213.381,125.200 212.624 C 125.200 211.867,125.380 211.136,125.600 211.000 C 125.820 210.864,126.000 209.683,126.000 208.376 C 126.000 207.059,126.178 206.000,126.400 206.000 C 126.649 206.000,126.800 203.733,126.800 200.000 C 126.800 196.267,126.649 194.000,126.400 194.000 C 126.178 194.000,126.000 192.933,126.000 191.600 C 126.000 189.785,125.860 189.200,125.428 189.200 C 124.981 189.200,124.932 189.466,125.203 190.412 C 125.453 191.283,125.417 191.607,125.075 191.565 C 122.496 191.243,122.127 191.508,122.106 193.700 C 122.095 194.855,122.066 196.475,122.043 197.300 L 122.000 198.800 119.600 198.800 C 117.444 198.800,117.200 198.716,117.200 197.976 C 117.200 197.485,117.025 197.261,116.765 197.422 C 116.526 197.569,116.426 198.056,116.543 198.503 C 116.666 198.973,116.607 199.165,116.403 198.958 C 116.209 198.761,115.981 197.790,115.895 196.800 C 115.810 195.810,115.708 197.475,115.670 200.500 C 115.627 203.853,115.444 206.000,115.200 206.000 C 114.980 206.000,114.800 206.900,114.800 208.000 C 114.800 209.100,114.620 210.000,114.400 210.000 C 114.180 210.000,114.000 210.540,114.000 211.200 C 114.000 211.860,113.820 212.400,113.600 212.400 C 113.380 212.400,113.200 212.683,113.200 213.029 C 113.200 214.882,112.062 214.883,110.209 213.030 C 109.214 212.035,108.400 211.030,108.400 210.797 C 108.400 210.234,105.749 207.600,105.182 207.600 C 104.937 207.600,104.046 206.880,103.200 206.000 C 102.354 205.120,101.418 204.400,101.120 204.400 C 100.821 204.400,100.317 204.040,100.000 203.600 C 99.683 203.160,99.118 202.800,98.745 202.800 C 98.372 202.800,98.007 202.665,97.933 202.500 C 97.741 202.068,94.428 200.400,93.762 200.400 C 93.453 200.400,93.200 200.220,93.200 200.000 C 93.200 199.780,92.840 199.600,92.400 199.600 C 91.960 199.600,91.600 199.420,91.600 199.200 C 91.600 198.980,91.060 198.800,90.400 198.800 C 89.740 198.800,89.200 198.620,89.200 198.400 C 89.200 198.180,88.660 198.000,88.000 198.000 C 87.340 198.000,86.800 197.820,86.800 197.600 C 86.800 197.367,85.467 197.200,83.600 197.200 C 81.733 197.200,80.400 197.033,80.400 196.800 C 80.400 196.578,79.333 196.400,78.000 196.400 C 76.667 196.400,75.600 196.578,75.600 196.800 C 75.600 197.029,74.400 197.200,72.800 197.200 C 71.200 197.200,70.000 197.371,70.000 197.600 C 70.000 197.820,69.280 198.000,68.400 198.000 C 67.520 198.000,66.800 198.180,66.800 198.400 C 66.800 198.620,66.260 198.800,65.600 198.800 C 64.940 198.800,64.400 198.980,64.400 199.200 C 64.400 199.420,64.040 199.600,63.600 199.600 C 63.160 199.600,62.800 199.780,62.800 200.000 C 62.800 200.220,62.566 200.400,62.280 200.400 C 61.544 200.400,59.607 201.341,59.603 201.700 C 59.601 201.865,59.240 202.000,58.800 202.000 C 58.360 202.000,58.000 202.180,58.000 202.400 C 58.000 202.620,57.680 202.800,57.288 202.800 C 56.897 202.800,56.317 203.160,56.000 203.600 C 55.683 204.040,55.179 204.400,54.880 204.400 C 54.582 204.400,53.646 205.120,52.800 206.000 C 51.954 206.880,51.060 207.600,50.813 207.600 C 50.242 207.600,48.400 209.424,48.400 209.991 C 48.400 210.225,47.406 211.412,46.190 212.627 C 43.941 214.877,42.800 215.012,42.800 213.029 C 42.800 212.683,42.620 212.400,42.400 212.400 C 42.180 212.400,42.000 211.680,42.000 210.800 C 42.000 209.920,41.820 209.200,41.600 209.200 C 41.380 209.200,41.200 208.480,41.200 207.600 C 41.200 206.720,41.020 206.000,40.800 206.000 C 40.557 206.000,40.374 203.922,40.333 200.700 C 40.280 196.546,40.208 195.919,40.000 197.800 C 39.852 199.137,39.705 199.635,39.667 198.924 C 39.593 197.520,38.800 196.653,38.800 197.976 C 38.800 198.715,38.556 198.800,36.429 198.800 L 34.058 198.800 33.829 196.700 C 33.703 195.545,33.555 193.970,33.500 193.200 C 33.422 192.106,33.210 191.773,32.531 191.676 C 31.788 191.570,30.584 189.598,30.980 189.134 C 31.372 188.673,31.576 186.000,31.218 186.000 C 30.988 186.000,30.800 186.720,30.800 187.600 M124.440 186.500 C 124.575 188.191,125.122 188.950,125.160 187.500 C 125.182 186.675,125.020 186.000,124.800 186.000 C 124.580 186.000,124.418 186.225,124.440 186.500 M42.066 187.718 C 41.275 189.642,41.083 190.800,41.557 190.800 C 41.800 190.800,42.000 190.275,42.000 189.633 C 42.000 188.992,42.201 188.400,42.446 188.318 C 42.691 188.236,42.809 187.816,42.709 187.385 C 42.549 186.700,42.468 186.742,42.066 187.718 M114.006 189.700 C 114.003 190.305,114.180 190.800,114.400 190.800 C 114.906 190.800,114.906 189.983,114.400 189.200 C 114.098 188.732,114.011 188.843,114.006 189.700 M40.732 192.200 C 40.590 192.860,40.366 193.850,40.233 194.400 C 40.100 194.950,40.110 195.130,40.256 194.800 C 40.401 194.470,40.686 194.091,40.890 193.958 C 41.093 193.825,41.199 193.105,41.124 192.358 L 40.989 191.000 40.732 192.200 M114.854 192.457 C 114.818 193.422,115.003 193.992,115.400 194.145 C 116.067 194.401,116.200 193.967,115.634 193.380 C 115.432 193.171,115.187 192.550,115.088 192.000 C 114.954 191.250,114.895 191.364,114.854 192.457 M82.000 198.445 C 82.000 198.640,80.200 198.800,78.000 198.800 C 73.389 198.800,72.510 198.095,76.900 197.918 C 80.313 197.779,82.000 197.954,82.000 198.445 M82.800 204.000 C 82.800 204.222,83.867 204.400,85.200 204.400 C 86.533 204.400,87.600 204.578,87.600 204.800 C 87.600 205.020,88.063 205.200,88.629 205.200 C 90.217 205.200,90.800 206.082,90.800 208.483 C 90.800 210.165,90.972 210.747,91.600 211.200 C 92.040 211.517,92.400 212.057,92.400 212.400 C 92.400 212.743,92.760 213.283,93.200 213.600 C 93.640 213.917,94.000 214.497,94.000 214.888 C 94.000 215.280,94.180 215.600,94.400 215.600 C 94.620 215.600,94.800 215.960,94.800 216.400 C 94.800 216.840,94.980 217.200,95.200 217.200 C 95.420 217.200,95.600 217.740,95.600 218.400 C 95.600 219.060,95.780 219.600,96.000 219.600 C 96.220 219.600,96.400 219.960,96.400 220.400 C 96.400 220.840,96.580 221.200,96.800 221.200 C 97.020 221.200,97.200 221.740,97.200 222.400 C 97.200 223.060,97.380 223.600,97.600 223.600 C 97.820 223.600,98.000 223.960,98.000 224.400 C 98.000 224.933,98.267 225.200,98.800 225.200 C 99.467 225.200,99.600 224.933,99.600 223.600 C 99.600 222.720,99.780 222.000,100.000 222.000 C 100.220 222.000,100.400 221.100,100.400 220.000 C 100.400 218.900,100.580 218.000,100.800 218.000 C 101.037 218.000,101.200 216.533,101.200 214.400 C 101.200 210.373,101.233 210.323,102.800 212.000 C 103.417 212.660,104.122 213.200,104.368 213.200 C 104.614 213.200,105.981 214.367,107.407 215.793 C 110.177 218.562,110.613 219.781,109.200 220.800 C 108.760 221.117,108.400 221.609,108.400 221.893 C 108.400 222.567,100.167 230.800,99.493 230.800 C 99.209 230.800,98.717 231.160,98.400 231.600 C 98.083 232.040,97.503 232.400,97.112 232.400 C 96.720 232.400,96.400 232.580,96.400 232.800 C 96.400 233.020,96.040 233.200,95.600 233.200 C 95.160 233.200,94.800 233.380,94.800 233.600 C 94.800 233.820,94.440 234.000,94.000 234.000 C 93.560 234.000,93.200 234.180,93.200 234.400 C 93.200 234.620,92.840 234.800,92.400 234.800 C 91.960 234.800,91.600 234.980,91.600 235.200 C 91.600 235.420,91.060 235.600,90.400 235.600 C 89.740 235.600,89.200 235.780,89.200 236.000 C 89.200 236.220,88.480 236.400,87.600 236.400 C 86.720 236.400,86.000 236.580,86.000 236.800 C 86.000 237.020,85.100 237.200,84.000 237.200 C 82.900 237.200,82.000 237.380,82.000 237.600 C 82.000 237.840,80.400 238.000,78.000 238.000 C 75.600 238.000,74.000 237.840,74.000 237.600 C 74.000 237.380,73.100 237.200,72.000 237.200 C 70.900 237.200,70.000 237.020,70.000 236.800 C 70.000 236.580,69.280 236.400,68.400 236.400 C 67.520 236.400,66.800 236.220,66.800 236.000 C 66.800 235.780,66.260 235.600,65.600 235.600 C 64.940 235.600,64.400 235.420,64.400 235.200 C 64.400 234.980,64.040 234.800,63.600 234.800 C 63.160 234.800,62.800 234.620,62.800 234.400 C 62.800 234.180,62.440 234.000,62.000 234.000 C 61.560 234.000,61.200 233.820,61.200 233.600 C 61.200 233.380,60.840 233.200,60.400 233.200 C 59.960 233.200,59.600 233.020,59.600 232.800 C 59.600 232.580,59.280 232.400,58.888 232.400 C 58.497 232.400,57.917 232.040,57.600 231.600 C 57.283 231.160,56.791 230.800,56.507 230.800 C 55.833 230.800,47.600 222.567,47.600 221.893 C 47.600 221.609,47.240 221.117,46.800 220.800 C 45.387 219.781,45.823 218.562,48.593 215.793 C 50.019 214.367,51.386 213.200,51.632 213.200 C 51.878 213.200,52.583 212.660,53.200 212.000 C 54.753 210.337,54.800 210.396,54.800 214.000 C 54.800 215.867,54.967 217.200,55.200 217.200 C 55.422 217.200,55.600 218.267,55.600 219.600 C 55.600 220.933,55.778 222.000,56.000 222.000 C 56.220 222.000,56.400 222.540,56.400 223.200 C 56.400 224.024,56.597 224.400,57.029 224.400 C 57.973 224.400,58.800 223.386,58.800 222.229 C 58.800 221.663,58.980 221.200,59.200 221.200 C 59.420 221.200,59.600 220.840,59.600 220.400 C 59.600 219.960,59.780 219.600,60.000 219.600 C 60.220 219.600,60.400 219.060,60.400 218.400 C 60.400 217.740,60.580 217.200,60.800 217.200 C 61.020 217.200,61.200 216.880,61.200 216.488 C 61.200 216.097,61.560 215.517,62.000 215.200 C 62.440 214.883,62.800 214.303,62.800 213.912 C 62.800 213.520,62.980 213.200,63.200 213.200 C 63.420 213.200,63.600 212.880,63.600 212.488 C 63.600 212.097,63.960 211.517,64.400 211.200 C 65.028 210.747,65.200 210.165,65.200 208.483 C 65.200 206.082,65.783 205.200,67.371 205.200 C 67.937 205.200,68.400 205.020,68.400 204.800 C 68.400 204.578,69.467 204.400,70.800 204.400 C 72.133 204.400,73.200 204.222,73.200 204.000 C 73.200 203.756,75.067 203.600,78.000 203.600 C 80.933 203.600,82.800 203.756,82.800 204.000 " stroke="none" fill="#080a15" fill-rule="evenodd"></path><path id="path2" d="M76.092 170.800 C 75.620 171.240,75.064 171.600,74.857 171.600 C 74.650 171.600,73.592 172.455,72.505 173.500 C 71.418 174.545,70.197 175.592,69.791 175.827 C 69.385 176.061,68.861 176.585,68.627 176.991 C 68.392 177.397,67.345 178.618,66.300 179.705 C 65.255 180.792,64.400 181.893,64.400 182.152 C 64.400 182.411,64.040 182.883,63.600 183.200 C 63.160 183.517,62.800 184.014,62.800 184.305 C 62.800 184.596,62.440 185.220,62.000 185.692 C 61.560 186.164,61.200 186.787,61.200 187.075 C 61.200 187.364,61.020 187.600,60.800 187.600 C 60.580 187.600,60.400 187.960,60.400 188.400 C 60.400 188.840,60.220 189.200,60.000 189.200 C 59.780 189.200,59.600 189.560,59.600 190.000 C 59.600 190.440,59.420 190.800,59.200 190.800 C 58.980 190.800,58.800 191.149,58.800 191.576 C 58.800 192.003,58.620 192.464,58.400 192.600 C 58.180 192.736,58.000 193.287,58.000 193.824 C 58.000 194.361,57.820 194.800,57.600 194.800 C 57.380 194.800,57.200 195.340,57.200 196.000 C 57.200 196.660,57.020 197.200,56.800 197.200 C 56.580 197.200,56.400 197.909,56.400 198.776 C 56.400 199.643,56.220 200.464,56.000 200.600 C 54.998 201.219,55.572 202.800,56.800 202.800 C 57.460 202.800,58.000 202.641,58.000 202.447 C 58.000 202.253,58.990 201.610,60.200 201.018 C 61.990 200.142,62.400 199.755,62.400 198.944 C 62.400 197.499,64.843 192.434,66.390 190.672 L 67.717 189.161 71.535 189.252 C 74.182 189.315,75.400 189.199,75.509 188.872 C 75.596 188.612,75.862 188.400,76.102 188.400 C 76.341 188.400,76.866 188.102,77.269 187.738 C 77.949 187.122,78.051 187.122,78.731 187.738 C 79.134 188.102,79.659 188.400,79.898 188.400 C 80.138 188.400,80.393 188.556,80.467 188.747 C 80.675 189.291,82.400 189.719,82.400 189.227 C 82.400 188.962,83.539 188.800,85.396 188.800 L 88.392 188.800 89.778 190.700 C 90.541 191.745,91.552 193.410,92.026 194.400 C 92.500 195.390,93.048 196.513,93.244 196.895 C 93.440 197.277,93.600 198.118,93.600 198.765 C 93.600 199.793,93.876 200.076,95.800 201.018 C 97.010 201.610,98.000 202.253,98.000 202.447 C 98.000 202.641,98.540 202.800,99.200 202.800 C 100.267 202.800,100.400 202.667,100.400 201.600 C 100.400 200.940,100.220 200.400,100.000 200.400 C 99.780 200.400,99.600 199.680,99.600 198.800 C 99.600 197.920,99.420 197.200,99.200 197.200 C 98.980 197.200,98.800 196.660,98.800 196.000 C 98.800 195.340,98.620 194.800,98.400 194.800 C 98.180 194.800,98.000 194.260,98.000 193.600 C 98.000 192.940,97.820 192.400,97.600 192.400 C 97.380 192.400,97.200 192.040,97.200 191.600 C 97.200 191.160,97.020 190.800,96.800 190.800 C 96.580 190.800,96.400 190.440,96.400 190.000 C 96.400 189.560,96.220 189.200,96.000 189.200 C 95.780 189.200,95.600 188.840,95.600 188.400 C 95.600 187.960,95.420 187.600,95.200 187.600 C 94.980 187.600,94.800 187.240,94.800 186.800 C 94.800 186.360,94.620 186.000,94.400 186.000 C 94.180 186.000,94.000 185.764,94.000 185.475 C 94.000 185.187,93.640 184.564,93.200 184.092 C 92.760 183.620,92.400 183.081,92.400 182.895 C 92.400 182.709,91.365 181.467,90.100 180.136 C 88.835 178.806,87.608 177.387,87.373 176.985 C 87.139 176.583,86.615 176.061,86.209 175.827 C 85.803 175.592,84.582 174.545,83.495 173.500 C 82.408 172.455,81.350 171.600,81.143 171.600 C 80.936 171.600,80.380 171.240,79.908 170.800 C 79.436 170.360,78.577 170.000,78.000 170.000 C 77.423 170.000,76.564 170.360,76.092 170.800 M311.800 180.800 C 311.664 181.020,310.663 181.200,309.576 181.200 C 308.489 181.200,307.600 181.380,307.600 181.600 C 307.600 181.820,307.161 182.000,306.624 182.000 C 306.087 182.000,305.536 182.180,305.400 182.400 C 305.264 182.620,304.843 182.800,304.465 182.800 C 304.086 182.800,303.517 183.160,303.200 183.600 C 302.883 184.040,302.387 184.400,302.098 184.400 C 301.369 184.400,298.800 187.038,298.800 187.787 C 298.800 188.124,298.653 188.400,298.474 188.400 C 298.008 188.400,296.400 191.531,296.400 192.438 C 296.400 192.933,296.120 193.200,295.600 193.200 C 295.160 193.200,294.800 192.951,294.800 192.646 C 294.800 192.342,293.675 190.914,292.300 189.473 C 290.925 188.032,289.431 186.436,288.979 185.926 C 287.786 184.579,285.480 182.816,284.900 182.807 C 284.625 182.803,284.400 182.620,284.400 182.400 C 284.400 182.180,283.871 182.000,283.224 182.000 C 282.577 182.000,281.936 181.820,281.800 181.600 C 281.654 181.363,279.196 181.200,275.776 181.200 C 272.192 181.200,270.000 181.352,270.000 181.600 C 270.000 181.820,269.645 182.000,269.212 182.000 C 267.335 182.000,260.400 187.854,260.400 189.438 C 260.400 189.747,260.220 190.000,260.000 190.000 C 259.780 190.000,259.600 190.540,259.600 191.200 C 259.600 191.860,259.420 192.400,259.200 192.400 C 258.980 192.400,258.800 193.109,258.800 193.976 C 258.800 194.843,258.620 195.664,258.400 195.800 C 258.180 195.936,258.000 197.387,258.000 199.024 C 258.000 200.741,258.169 202.000,258.400 202.000 C 258.620 202.000,258.800 202.799,258.800 203.776 C 258.800 204.753,258.980 205.664,259.200 205.800 C 259.420 205.936,259.600 206.397,259.600 206.824 C 259.600 207.251,259.780 207.600,260.000 207.600 C 260.220 207.600,260.400 207.960,260.400 208.400 C 260.400 208.840,260.550 209.200,260.732 209.200 C 260.915 209.200,261.320 209.681,261.632 210.270 C 263.257 213.333,271.493 220.400,273.438 220.400 C 273.747 220.400,274.000 220.580,274.000 220.800 C 274.000 221.020,274.684 221.200,275.520 221.200 C 276.356 221.200,277.236 221.396,277.475 221.635 C 278.130 222.290,284.836 221.711,287.000 220.814 C 290.087 219.532,291.048 218.901,293.189 216.747 C 294.515 215.413,295.600 214.069,295.600 213.760 C 295.600 213.452,295.780 213.200,296.000 213.200 C 296.220 213.200,296.400 212.851,296.400 212.424 C 296.400 211.997,296.580 211.536,296.800 211.400 C 297.863 210.743,297.238 208.400,296.000 208.400 C 294.933 208.400,294.800 208.267,294.800 207.200 C 294.800 206.133,294.667 206.000,293.600 206.000 C 292.940 206.000,292.400 205.820,292.400 205.600 C 292.400 205.380,292.580 205.200,292.800 205.200 C 293.020 205.200,293.200 204.840,293.200 204.400 C 293.200 203.245,282.548 203.148,282.107 204.299 C 281.712 205.328,280.129 206.800,279.418 206.800 C 279.078 206.800,278.800 206.980,278.800 207.200 C 278.800 207.429,277.600 207.600,276.000 207.600 C 273.495 207.600,273.200 207.518,273.200 206.824 C 273.200 206.397,273.020 205.936,272.800 205.800 C 272.580 205.664,272.400 204.764,272.400 203.800 C 272.400 202.836,272.580 201.936,272.800 201.800 C 273.020 201.664,273.200 201.201,273.200 200.771 C 273.200 199.303,275.428 196.471,277.503 195.300 C 278.556 194.706,282.800 194.626,282.800 195.200 C 282.800 195.420,283.084 195.600,283.431 195.600 C 283.779 195.600,284.754 196.320,285.600 197.200 L 287.137 198.800 291.369 198.800 L 295.600 198.800 295.600 201.576 C 295.600 203.103,295.780 204.464,296.000 204.600 C 296.220 204.736,296.400 205.287,296.400 205.824 C 296.400 206.361,296.580 206.800,296.800 206.800 C 297.020 206.800,297.200 207.160,297.200 207.600 C 297.200 208.040,297.380 208.400,297.600 208.400 C 297.820 208.400,298.000 208.667,298.000 208.993 C 298.000 209.320,298.626 210.265,299.391 211.093 C 303.046 215.054,304.400 216.623,304.400 216.899 C 304.400 217.065,304.625 217.201,304.900 217.202 C 305.175 217.203,305.975 217.743,306.678 218.402 C 307.381 219.061,308.236 219.600,308.578 219.600 C 308.920 219.600,309.200 219.780,309.200 220.000 C 309.200 220.220,309.639 220.400,310.176 220.400 C 310.713 220.400,311.264 220.580,311.400 220.800 C 311.536 221.020,312.256 221.200,313.000 221.200 C 313.744 221.200,314.464 221.380,314.600 221.600 C 314.736 221.820,316.176 222.000,317.800 222.000 C 319.424 222.000,320.864 221.820,321.000 221.600 C 321.136 221.380,321.779 221.200,322.429 221.200 C 323.079 221.200,323.923 221.032,324.305 220.826 C 324.687 220.621,325.585 220.217,326.300 219.929 C 327.015 219.640,327.600 219.269,327.600 219.102 C 327.600 218.936,327.856 218.800,328.168 218.800 C 329.143 218.800,332.222 215.370,333.438 212.930 L 334.600 210.600 334.718 213.500 L 334.835 216.400 336.018 216.400 C 337.065 216.400,337.200 216.537,337.200 217.600 C 337.200 218.533,337.378 218.800,338.000 218.800 C 338.624 218.800,338.800 219.067,338.800 220.012 L 338.800 221.224 343.900 221.112 L 349.000 221.000 349.120 218.700 C 349.257 216.067,350.800 215.057,350.800 217.600 C 350.800 218.667,350.933 218.800,352.000 218.800 C 353.067 218.800,353.200 218.933,353.200 220.000 L 353.200 221.200 358.000 221.200 L 362.800 221.200 362.800 212.800 C 362.800 207.467,362.946 204.400,363.200 204.400 C 363.420 204.400,363.600 204.720,363.600 205.112 C 363.600 205.503,363.960 206.083,364.400 206.400 C 364.840 206.717,365.200 207.257,365.200 207.600 C 365.200 207.943,365.560 208.483,366.000 208.800 C 366.440 209.117,366.800 209.631,366.800 209.941 C 366.800 210.252,367.116 210.797,367.503 211.153 C 367.889 211.509,368.460 212.295,368.770 212.900 C 369.081 213.505,369.485 214.000,369.668 214.000 C 369.850 214.000,370.000 214.251,370.000 214.558 C 370.000 214.865,370.461 215.540,371.023 216.058 C 371.586 216.576,372.212 217.405,372.413 217.900 C 372.615 218.395,373.016 218.800,373.304 218.800 C 373.592 218.800,374.146 219.340,374.536 220.000 L 375.245 221.200 380.223 221.200 L 385.200 221.200 385.200 203.600 L 385.200 186.000 384.000 186.000 C 382.933 186.000,382.800 185.867,382.800 184.800 C 382.800 183.867,382.622 183.600,382.000 183.600 C 381.378 183.600,381.200 183.333,381.200 182.400 L 381.200 181.200 376.480 181.200 C 370.363 181.200,370.802 180.507,370.791 190.180 L 370.782 198.200 369.995 197.200 C 369.562 196.650,368.982 195.705,368.706 195.100 C 368.430 194.495,368.069 194.000,367.902 194.000 C 367.736 194.000,367.600 193.764,367.600 193.475 C 367.600 193.187,367.240 192.564,366.800 192.092 C 366.360 191.620,366.000 191.126,366.000 190.995 C 366.000 190.474,362.830 186.164,362.041 185.612 C 361.578 185.288,361.200 184.809,361.200 184.546 C 361.200 184.283,360.573 183.423,359.807 182.634 L 358.414 181.200 353.807 181.200 L 349.200 181.200 349.200 184.080 C 349.200 186.320,349.093 186.853,348.720 186.480 C 348.456 186.216,347.916 186.000,347.520 186.000 C 346.987 186.000,346.800 185.689,346.800 184.800 C 346.800 183.733,346.667 183.600,345.600 183.600 C 344.533 183.600,344.400 183.467,344.400 182.400 L 344.400 181.200 339.609 181.200 L 334.817 181.200 334.709 188.900 L 334.600 196.600 333.821 195.000 C 333.392 194.120,332.934 193.310,332.802 193.200 C 332.670 193.090,332.154 192.417,331.657 191.704 C 329.733 188.950,324.189 183.749,322.200 182.833 C 321.100 182.327,319.887 181.752,319.505 181.556 C 319.123 181.360,317.919 181.200,316.829 181.200 C 315.739 181.200,314.736 181.020,314.600 180.800 C 314.464 180.580,313.834 180.400,313.200 180.400 C 312.566 180.400,311.936 180.580,311.800 180.800 M145.696 181.995 C 145.423 182.432,145.200 183.141,145.200 183.571 C 145.200 184.001,145.020 184.464,144.800 184.600 C 144.580 184.736,144.400 185.287,144.400 185.824 C 144.400 186.361,144.220 186.800,144.000 186.800 C 143.780 186.800,143.600 187.340,143.600 188.000 C 143.600 188.660,143.420 189.200,143.200 189.200 C 142.980 189.200,142.800 189.549,142.800 189.976 C 142.800 190.403,142.620 190.864,142.400 191.000 C 142.180 191.136,142.000 191.687,142.000 192.224 C 142.000 192.761,141.820 193.200,141.600 193.200 C 141.380 193.200,141.200 193.740,141.200 194.400 C 141.200 195.060,141.020 195.600,140.800 195.600 C 140.580 195.600,140.400 196.140,140.400 196.800 C 140.400 197.460,140.220 198.000,140.000 198.000 C 139.780 198.000,139.600 198.349,139.600 198.776 C 139.600 199.203,139.420 199.664,139.200 199.800 C 138.980 199.936,138.800 200.487,138.800 201.024 C 138.800 201.561,138.620 202.000,138.400 202.000 C 138.180 202.000,138.000 202.540,138.000 203.200 C 138.000 203.860,137.820 204.400,137.600 204.400 C 137.380 204.400,137.200 204.940,137.200 205.600 C 137.200 206.260,137.020 206.800,136.800 206.800 C 136.580 206.800,136.400 207.149,136.400 207.576 C 136.400 208.003,136.220 208.464,136.000 208.600 C 135.780 208.736,135.600 209.287,135.600 209.824 C 135.600 210.361,135.420 210.800,135.200 210.800 C 134.980 210.800,134.800 211.329,134.800 211.976 C 134.800 212.623,134.620 213.264,134.400 213.400 C 133.337 214.057,133.962 216.400,135.200 216.400 C 136.461 216.400,136.698 216.742,135.955 217.485 C 135.248 218.192,135.927 218.800,137.424 218.800 C 138.181 218.800,138.800 218.980,138.800 219.200 C 138.800 219.420,138.620 219.600,138.400 219.600 C 138.180 219.600,138.000 219.960,138.000 220.400 C 138.000 221.159,138.267 221.200,143.200 221.200 C 148.081 221.200,148.400 221.152,148.400 220.424 C 148.400 219.997,148.580 219.536,148.800 219.400 C 149.020 219.264,149.200 218.839,149.200 218.456 C 149.200 215.982,149.897 215.606,154.500 215.603 C 157.102 215.601,158.800 215.758,158.800 216.000 C 158.800 216.220,159.116 216.400,159.502 216.400 C 159.898 216.400,160.437 216.924,160.736 217.600 C 161.059 218.331,161.567 218.800,162.034 218.800 C 162.464 218.800,162.800 219.076,162.800 219.429 C 162.800 220.894,163.794 221.200,168.548 221.200 C 173.721 221.200,173.850 221.129,173.013 218.727 C 172.239 216.503,172.247 216.400,173.200 216.400 C 173.822 216.400,174.000 216.667,174.000 217.600 C 174.000 218.533,174.178 218.800,174.800 218.800 C 175.422 218.800,175.600 219.067,175.600 220.000 L 175.600 221.200 186.405 221.200 C 192.348 221.200,197.523 221.041,197.905 220.847 C 198.287 220.652,199.140 220.247,199.800 219.947 C 201.198 219.310,202.525 218.093,202.907 217.099 C 203.427 215.742,206.000 216.159,206.000 217.600 C 206.000 218.533,206.178 218.800,206.800 218.800 C 207.424 218.800,207.600 219.067,207.600 220.012 L 207.600 221.224 212.700 221.112 L 217.800 221.000 217.913 216.485 C 217.983 213.707,218.175 212.061,218.413 212.208 C 218.626 212.340,218.800 212.797,218.800 213.224 C 218.800 213.651,218.936 214.000,219.102 214.000 C 219.269 214.000,219.644 214.540,219.936 215.200 C 220.259 215.931,220.767 216.400,221.234 216.400 C 221.664 216.400,222.000 216.676,222.000 217.029 C 222.000 217.837,222.963 218.800,223.771 218.800 C 224.117 218.800,224.400 219.083,224.400 219.429 C 224.400 220.920,225.374 221.200,230.571 221.200 L 235.600 221.200 235.600 220.000 C 235.600 219.340,235.441 218.800,235.247 218.800 C 235.052 218.800,234.793 218.485,234.671 218.100 C 234.454 217.415,233.196 215.196,232.800 214.800 C 232.404 214.404,231.146 212.185,230.929 211.500 C 230.807 211.115,230.548 210.800,230.353 210.800 C 230.159 210.800,230.000 210.522,230.000 210.183 C 230.000 209.844,229.628 209.169,229.172 208.683 L 228.345 207.800 229.172 207.672 C 229.628 207.602,230.000 207.377,230.000 207.172 C 230.000 206.967,230.255 206.800,230.566 206.800 C 231.332 206.800,234.000 204.164,234.000 203.407 C 234.000 203.073,234.180 202.800,234.400 202.800 C 234.651 202.800,234.800 205.333,234.800 209.600 L 234.800 216.400 236.000 216.400 C 237.067 216.400,237.200 216.533,237.200 217.600 C 237.200 218.667,237.333 218.800,238.400 218.800 C 239.467 218.800,239.600 218.933,239.600 220.000 L 239.600 221.200 244.400 221.200 L 249.200 221.200 249.200 203.600 L 249.200 186.000 248.000 186.000 C 246.933 186.000,246.800 185.867,246.800 184.800 C 246.800 183.880,246.619 183.600,246.027 183.600 C 245.480 183.600,245.216 183.277,245.127 182.500 L 245.000 181.400 240.000 181.400 L 235.000 181.400 234.888 186.500 C 234.771 191.825,234.602 192.318,233.515 190.500 C 232.474 188.758,226.528 182.800,225.831 182.800 C 225.484 182.800,225.200 182.620,225.200 182.400 C 225.200 182.180,224.671 182.000,224.024 182.000 C 223.377 182.000,222.736 181.820,222.600 181.600 C 222.447 181.352,218.800 181.200,212.987 181.200 L 203.622 181.200 203.511 186.900 L 203.400 192.600 202.652 191.095 C 201.058 187.887,194.555 182.000,192.605 182.000 C 192.052 182.000,191.600 181.820,191.600 181.600 C 191.600 181.344,188.000 181.200,181.600 181.200 L 171.600 181.200 171.600 197.424 C 171.600 208.137,171.464 213.563,171.200 213.400 C 170.980 213.264,170.800 212.801,170.800 212.371 C 170.800 211.941,170.620 211.232,170.400 210.795 C 170.180 210.358,169.820 209.642,169.600 209.205 C 169.380 208.768,169.200 208.048,169.200 207.605 C 169.200 207.162,169.020 206.800,168.800 206.800 C 168.580 206.800,168.400 206.361,168.400 205.824 C 168.400 205.287,168.220 204.736,168.000 204.600 C 167.780 204.464,167.600 203.924,167.600 203.400 C 167.600 202.876,167.420 202.336,167.200 202.200 C 166.980 202.064,166.800 201.603,166.800 201.176 C 166.800 200.749,166.620 200.400,166.400 200.400 C 166.180 200.400,166.000 199.860,166.000 199.200 C 166.000 198.540,165.820 198.000,165.600 198.000 C 165.380 198.000,165.200 197.561,165.200 197.024 C 165.200 196.487,165.020 195.936,164.800 195.800 C 164.580 195.664,164.400 195.201,164.400 194.771 C 164.400 194.341,164.192 193.587,163.938 193.095 C 162.944 191.174,162.800 190.784,162.800 190.029 C 162.800 189.599,162.620 189.136,162.400 189.000 C 162.180 188.864,162.000 188.391,162.000 187.948 C 162.000 186.986,161.103 186.000,160.229 186.000 C 159.823 186.000,159.600 185.641,159.600 184.987 C 159.600 184.391,159.313 183.866,158.900 183.710 C 157.899 183.331,157.200 182.557,157.200 181.829 C 157.200 180.750,146.376 180.907,145.696 181.995 M188.400 194.400 C 188.400 194.620,187.860 194.800,187.200 194.800 C 186.540 194.800,186.000 194.620,186.000 194.400 C 186.000 194.180,186.540 194.000,187.200 194.000 C 187.860 194.000,188.400 194.180,188.400 194.400 M220.400 195.029 C 220.400 195.154,220.143 195.514,219.829 195.829 C 218.996 196.661,218.000 196.536,218.000 195.600 C 218.000 194.978,218.267 194.800,219.200 194.800 C 219.860 194.800,220.400 194.903,220.400 195.029 M320.720 195.280 C 320.984 195.544,321.200 196.228,321.200 196.800 C 321.200 197.372,321.397 198.037,321.637 198.277 C 321.953 198.593,321.953 198.940,321.637 199.531 C 321.397 199.980,321.200 200.812,321.200 201.379 C 321.200 203.057,319.120 205.812,316.880 207.100 C 315.125 208.109,310.000 207.754,310.000 206.624 C 310.000 206.087,309.820 205.536,309.600 205.400 C 309.105 205.094,309.073 202.239,309.553 201.295 C 309.748 200.913,310.151 200.060,310.451 199.400 C 311.023 198.137,312.876 196.128,314.210 195.324 C 315.258 194.692,320.099 194.659,320.720 195.280 M203.579 202.900 C 203.559 206.877,203.538 206.971,202.879 206.020 C 202.506 205.481,201.775 204.614,201.255 204.093 L 200.310 203.146 201.482 201.673 C 202.126 200.863,202.771 199.885,202.914 199.500 C 203.441 198.084,203.600 198.893,203.579 202.900 M188.600 208.000 C 188.464 208.220,187.823 208.400,187.176 208.400 C 186.529 208.400,186.000 208.220,186.000 208.000 C 186.000 207.780,186.641 207.600,187.424 207.600 C 188.271 207.600,188.747 207.762,188.600 208.000 " stroke="none" fill="#fbce68" fill-rule="evenodd"></path><path id="path3" d="M82.400 189.243 C 82.400 189.486,82.130 189.582,81.800 189.455 C 80.795 189.070,81.113 189.567,83.123 191.526 C 84.180 192.557,85.693 194.362,86.484 195.538 C 88.029 197.832,89.844 199.116,90.548 198.412 C 90.831 198.129,90.711 198.000,90.169 198.000 C 89.191 198.000,87.866 196.525,88.159 195.762 C 88.881 193.881,92.010 195.366,92.944 198.034 C 93.470 199.536,93.565 199.635,93.581 198.695 C 93.591 198.087,93.440 197.277,93.244 196.895 C 93.048 196.513,92.500 195.390,92.026 194.400 C 91.552 193.410,90.541 191.745,89.778 190.700 L 88.392 188.800 85.396 188.800 C 83.472 188.800,82.400 188.958,82.400 189.243 M66.395 190.667 C 64.831 192.448,62.380 197.543,62.446 198.874 C 62.485 199.639,62.527 199.668,62.687 199.042 C 63.233 196.909,64.251 195.801,65.784 195.673 C 67.539 195.526,68.368 196.075,67.667 196.920 C 67.414 197.224,67.326 197.592,67.471 197.738 C 67.824 198.091,69.200 196.818,69.200 196.138 C 69.200 195.842,69.380 195.600,69.600 195.600 C 69.820 195.600,70.000 195.365,70.000 195.078 C 70.000 194.791,71.080 193.435,72.400 192.065 C 73.720 190.695,74.800 189.524,74.800 189.464 C 74.800 189.403,73.209 189.307,71.264 189.251 L 67.727 189.149 66.395 190.667 " stroke="none" fill="#a38243" fill-rule="evenodd"></path><path id="path4" d="M88.159 195.762 C 87.874 196.504,89.180 198.000,90.113 198.000 C 90.517 198.000,90.736 198.180,90.600 198.400 C 90.464 198.620,90.633 198.800,90.976 198.800 C 91.319 198.800,91.600 198.980,91.600 199.200 C 91.600 199.420,91.924 199.600,92.320 199.600 C 92.716 199.600,93.292 199.825,93.601 200.100 C 94.062 200.512,94.091 200.494,93.764 200.000 C 93.546 199.670,93.124 198.687,92.827 197.815 C 91.983 195.340,88.850 193.962,88.159 195.762 M64.132 196.100 C 63.931 196.375,63.528 197.140,63.237 197.800 C 62.945 198.460,62.544 199.319,62.344 199.709 C 62.025 200.334,62.075 200.360,62.765 199.929 C 63.196 199.660,63.459 199.296,63.351 199.120 C 63.242 198.944,63.613 198.800,64.176 198.800 C 64.739 198.800,65.200 198.620,65.200 198.400 C 65.200 198.180,65.481 198.000,65.824 198.000 C 66.167 198.000,66.336 198.180,66.200 198.400 C 65.825 199.007,66.379 198.878,67.057 198.200 C 67.387 197.870,67.532 197.600,67.380 197.600 C 67.227 197.600,67.320 197.338,67.585 197.018 C 67.851 196.697,67.953 196.247,67.811 196.018 C 67.448 195.431,64.574 195.496,64.132 196.100 " stroke="none" fill="#94743c" fill-rule="evenodd"></path></g></svg>